<svg width="56" height="56" viewBox="0 0 56 56" fill="none" xmlns="http://www.w3.org/2000/svg">
<rect width="56" height="56" rx="8" fill="url(#paint0_linear)"/>
<path d="M27.7619 12.8663L28.8959 10.9063C29.5959 9.6813 31.1569 9.2683 32.3819 9.9683C33.6069 10.6683 34.0199 12.2293 33.3199 13.4543L22.3929 32.3683H30.2959C32.8579 32.3683 34.2929 35.3783 33.1799 37.4643H10.0099C8.59591 37.4643 7.46191 36.3303 7.46191 34.9163C7.46191 33.5023 8.59591 32.3683 10.0099 32.3683H16.5059L24.8219 17.9553L22.2249 13.4473C21.5249 12.2223 21.9379 10.6753 23.1629 9.9613C24.3879 9.2613 25.9349 9.6743 26.6489 10.8993L27.7619 12.8663ZM17.9339 40.0893L15.4839 44.3383C14.7839 45.5633 13.2229 45.9763 11.9979 45.2763C10.7729 44.5763 10.3599 43.0153 11.0599 41.7903L12.8799 38.6403C14.9379 38.0033 16.6109 38.4933 17.9339 40.0893ZM39.0319 32.3823H45.6609C47.0749 32.3823 48.2089 33.5163 48.2089 34.9303C48.2089 36.3443 47.0749 37.4783 45.6609 37.4783H41.9789L44.4639 41.7903C45.1639 43.0153 44.7509 44.5623 43.5259 45.2763C42.3009 45.9763 40.7539 45.5633 40.0399 44.3383C35.8539 37.0793 32.7109 31.6473 30.6249 28.0283C28.4899 24.3463 30.0159 20.6503 31.5209 19.3973C33.1939 22.2673 35.6929 26.6003 39.0319 32.3823Z" fill="white"/>
<defs>
<linearGradient id="paint0_linear" x1="28" y1="0" x2="28" y2="56" gradientUnits="userSpaceOnUse">
<stop stop-color="#18BFFB"/>
<stop offset="1" stop-color="#2072F3"/>
</linearGradient>
</defs>
</svg>
