<svg width="36" height="36" viewBox="0 0 36 36" fill="none" xmlns="http://www.w3.org/2000/svg">
<path d="M11.2501 8.4L15.0001 10.5L12.9001 6.75L15.0001 3L11.2501 5.1L7.50009 3L9.60009 6.75L7.50009 10.5L11.2501 8.4ZM29.2501 23.1L25.5001 21L27.6001 24.75L25.5001 28.5L29.2501 26.4L33.0001 28.5L30.9001 24.75L33.0001 21L29.2501 23.1ZM33.0001 3L29.2501 5.1L25.5001 3L27.6001 6.75L25.5001 10.5L29.2501 8.4L33.0001 10.5L30.9001 6.75L33.0001 3ZM21.5551 10.935C20.9701 10.35 20.0251 10.35 19.4401 10.935L1.93509 28.44C1.35009 29.025 1.35009 29.97 1.93509 30.555L5.44509 34.065C6.03009 34.65 6.97509 34.65 7.56009 34.065L25.0501 16.575C25.6351 15.99 25.6351 15.045 25.0501 14.46L21.5551 10.935V10.935ZM20.0101 19.17L16.8301 15.99L20.4901 12.33L23.6701 15.51L20.0101 19.17V19.17Z" fill="#FB610B"/>
</svg>
