<svg width="80" height="80" viewBox="0 0 80 80" fill="none" xmlns="http://www.w3.org/2000/svg">
<rect width="80" height="80" rx="16" fill="#FB610B"/>
<path d="M56 32H50.38C49.48 30.44 48.24 29.1 46.74 28.08L50 24.82L47.18 22L42.84 26.34C41.92 26.12 40.98 26 40 26C39.02 26 38.08 26.12 37.18 26.34L32.82 22L30 24.82L33.24 28.08C31.76 29.1 30.52 30.44 29.62 32H24V36H28.18C28.08 36.66 28 37.32 28 38V40H24V44H28V46C28 46.68 28.08 47.34 28.18 48H24V52H29.62C31.7 55.58 35.56 58 40 58C44.44 58 48.3 55.58 50.38 52H56V48H51.82C51.92 47.34 52 46.68 52 46V44H56V40H52V38C52 37.32 51.92 36.66 51.82 36H56V32ZM48 40V46C48 46.44 47.94 46.94 47.86 47.4L47.66 48.7L46.92 50C45.48 52.48 42.84 54 40 54C37.16 54 34.52 52.46 33.08 50L32.34 48.72L32.14 47.42C32.06 46.96 32 46.46 32 46V38C32 37.54 32.06 37.04 32.14 36.6L32.34 35.3L33.08 34C33.68 32.96 34.52 32.06 35.5 31.38L36.64 30.6L38.12 30.24C38.74 30.08 39.38 30 40 30C40.64 30 41.26 30.08 41.9 30.24L43.26 30.56L44.48 31.4C45.48 32.08 46.3 32.96 46.9 34.02L47.66 35.32L47.86 36.62C47.94 37.06 48 37.56 48 38V40ZM36 44H44V48H36V44ZM36 36H44V40H36V36Z" fill="white"/>
</svg>
