<svg width="80" height="80" viewBox="0 0 80 80" fill="none" xmlns="http://www.w3.org/2000/svg">
<rect width="80" height="80" rx="16" fill="#FB610B"/>
<rect x="16" y="16" width="48" height="48" rx="16" fill="#FB610B"/>
<path d="M54.6 49.8C55.4 48.4 56 46.8 56 45C56 40 52 36 47 36C42 36 38 40 38 45C38 50 42 54 47 54C48.8 54 50.4 53.4 51.8 52.6L58.2 59L61 56.2L54.6 49.8ZM47 50C44.2 50 42 47.8 42 45C42 42.2 44.2 40 47 40C49.8 40 52 42.2 52 45C52 47.8 49.8 50 47 50ZM40 56V60C28.96 60 20 51.04 20 40C20 28.96 28.96 20 40 20C49.68 20 57.74 26.88 59.6 36H55.46C54.18 31.08 50.66 27.06 46 25.18V26C46 28.2 44.2 30 42 30H38V34C38 35.1 37.1 36 36 36H32V40H36V46H34L24.42 36.42C24.16 37.58 24 38.76 24 40C24 48.82 31.18 56 40 56Z" fill="white"/>
</svg>
