<svg width="80" height="80" viewBox="0 0 80 80" fill="none" xmlns="http://www.w3.org/2000/svg">
<rect width="80" height="80" rx="16" fill="#FB610B"/>
<path d="M38 44.3403L33.66 40.0003L38 35.6603L35.18 32.8203L28 40.0003L35.18 47.1803L38 44.3403Z" fill="white"/>
<path d="M44.82 47.1803L52 40.0003L44.82 32.8203L42 35.6603L46.34 40.0003L42 44.3403L44.82 47.1803Z" fill="white"/>
<path d="M54 22H45.64C44.8 19.68 42.6 18 40 18C37.4 18 35.2 19.68 34.36 22H26C25.72 22 25.46 22.02 25.2 22.08C24.42 22.24 23.72 22.64 23.18 23.18C22.82 23.54 22.52 23.98 22.32 24.46C22.12 24.92 22 25.44 22 26V46V48V54C22 54.54 22.12 55.08 22.32 55.56C22.52 56.04 22.82 56.46 23.18 56.84C23.72 57.38 24.42 57.78 25.2 57.94C25.46 57.98 25.72 58 26 58H54C56.2 58 58 56.2 58 54V48V46V26C58 23.8 56.2 22 54 22ZM40 21.5C40.82 21.5 41.5 22.18 41.5 23C41.5 23.82 40.82 24.5 40 24.5C39.18 24.5 38.5 23.82 38.5 23C38.5 22.18 39.18 21.5 40 21.5ZM54 46V48V54H26V48V46V26H54V46Z" fill="white"/>
</svg>
