<svg width="80" height="80" viewBox="0 0 80 80" fill="none" xmlns="http://www.w3.org/2000/svg">
<rect width="80" height="80" rx="16" fill="#FB610B"/>
<path d="M40.3032 31.2164L40.48 31.3932L40.6568 31.2164L49.6368 22.2364C50.3191 21.554 51.4209 21.554 52.1032 22.2364L57.7632 27.8964C58.4456 28.5788 58.4456 29.6805 57.7632 30.3628L48.8032 39.3228L48.6264 39.4996L48.8032 39.6764L56.5832 47.4564C58.0456 48.9188 58.0456 51.3005 56.5832 52.7628L52.7832 56.5628C51.6514 57.6947 49.2521 58.3381 47.4768 56.5628L39.6968 48.7828L39.52 48.6061L39.3432 48.7828L30.3764 57.7496H22.25V49.6232L31.1968 40.6764L31.3736 40.4996L31.1968 40.3228L23.4168 32.5428C21.9544 31.0805 21.9544 28.6988 23.4168 27.2364L27.2168 23.4364C28.6791 21.974 31.0609 21.974 32.5232 23.4364L40.3032 31.2164ZM25.9028 29.7033L25.7269 29.8801L25.9032 30.0564L33.6632 37.8164L33.84 37.9932L34.0168 37.8164L37.8168 34.0164L37.9936 33.8396L37.8168 33.6628L35.4168 31.2628L35.24 31.0861L35.0632 31.2628L32.86 33.4661L30.3928 30.9989L32.5775 28.7956L32.7528 28.6189L32.5768 28.4428L30.0368 25.9028L29.8595 25.7256L29.6828 25.9033L25.9028 29.7033ZM48.7168 44.9364L48.8936 44.7596L48.7168 44.5828L46.2968 42.1628L46.12 41.9861L45.9432 42.1628L42.1432 45.9628L41.9664 46.1396L42.1432 46.3164L49.9232 54.0964L50.1 54.2732L50.2768 54.0964L54.0768 50.2964L54.2536 50.1196L54.0768 49.9428L51.5368 47.4028L51.36 47.2261L51.1832 47.4028L48.98 49.6061L46.5136 47.1396L48.7168 44.9364ZM28.82 54.2496H28.9236L28.9968 54.1764L48.2168 34.9564L48.3936 34.7796L48.2168 34.6028L47.9968 34.3828L45.3968 31.7828L45.22 31.6061L45.0432 31.7828L25.8232 51.0028L25.75 51.0761V51.1796V53.9996V54.2496H26H28.82ZM47.8632 28.9428L47.6865 29.1196L47.8632 29.2964L50.6832 32.1164L50.86 32.2932L51.0368 32.1164L53.8568 29.2964L54.0336 29.1196L53.8568 28.9428L51.0368 26.1228L50.86 25.9461L50.6832 26.1228L47.8632 28.9428Z" fill="white" stroke="#FB610B" stroke-width="0.5"/>
</svg>
