<svg width="24" height="24" viewBox="0 0 24 24" fill="none" xmlns="http://www.w3.org/2000/svg">
<path d="M18.3002 5.70971C18.1134 5.52246 17.8597 5.41723 17.5952 5.41723C17.3307 5.41723 17.077 5.52246 16.8902 5.70971L12.0002 10.5897L7.11021 5.69971C6.92338 5.51246 6.66973 5.40723 6.40521 5.40723C6.1407 5.40723 5.88705 5.51246 5.70021 5.69971C5.31021 6.08971 5.31021 6.71971 5.70021 7.10971L10.5902 11.9997L5.70021 16.8897C5.31021 17.2797 5.31021 17.9097 5.70021 18.2997C6.09021 18.6897 6.72021 18.6897 7.11021 18.2997L12.0002 13.4097L16.8902 18.2997C17.2802 18.6897 17.9102 18.6897 18.3002 18.2997C18.6902 17.9097 18.6902 17.2797 18.3002 16.8897L13.4102 11.9997L18.3002 7.10971C18.6802 6.72971 18.6802 6.08971 18.3002 5.70971Z" fill="#F8F9FA" stroke="#F8F9FA" stroke-width="0.5"/>
</svg>
