<svg width="120" height="40" viewBox="0 0 120 40" fill="none" xmlns="http://www.w3.org/2000/svg">
<rect width="120" height="40" rx="4" fill="#FF660F"/>
<path d="M22.688 26.16C21.5573 26.16 20.5333 25.9147 19.616 25.424C18.7093 24.9227 17.9947 24.2347 17.472 23.36C16.96 22.4853 16.704 21.4987 16.704 20.4C16.704 19.3013 16.9653 18.3147 17.488 17.44C18.0107 16.5653 18.7253 15.8827 19.632 15.392C20.5493 14.8907 21.5733 14.64 22.704 14.64C23.6213 14.64 24.4587 14.8 25.216 15.12C25.9733 15.44 26.6133 15.904 27.136 16.512L25.792 17.776C24.9813 16.9013 23.984 16.464 22.8 16.464C22.032 16.464 21.344 16.6347 20.736 16.976C20.128 17.3067 19.6533 17.7707 19.312 18.368C18.9707 18.9653 18.8 19.6427 18.8 20.4C18.8 21.1573 18.9707 21.8347 19.312 22.432C19.6533 23.0293 20.128 23.4987 20.736 23.84C21.344 24.1707 22.032 24.336 22.8 24.336C23.984 24.336 24.9813 23.8933 25.792 23.008L27.136 24.288C26.6133 24.896 25.968 25.36 25.2 25.68C24.4427 26 23.6053 26.16 22.688 26.16ZM32.3045 26.112C31.4405 26.112 30.6618 25.9253 29.9685 25.552C29.2752 25.1787 28.7312 24.6613 28.3365 24C27.9525 23.328 27.7605 22.5707 27.7605 21.728C27.7605 20.8853 27.9525 20.1333 28.3365 19.472C28.7312 18.8107 29.2752 18.2933 29.9685 17.92C30.6618 17.5467 31.4405 17.36 32.3045 17.36C33.1792 17.36 33.9632 17.5467 34.6565 17.92C35.3498 18.2933 35.8885 18.8107 36.2725 19.472C36.6672 20.1333 36.8645 20.8853 36.8645 21.728C36.8645 22.5707 36.6672 23.328 36.2725 24C35.8885 24.6613 35.3498 25.1787 34.6565 25.552C33.9632 25.9253 33.1792 26.112 32.3045 26.112ZM32.3045 24.4C33.0405 24.4 33.6485 24.1547 34.1285 23.664C34.6085 23.1733 34.8485 22.528 34.8485 21.728C34.8485 20.928 34.6085 20.2827 34.1285 19.792C33.6485 19.3013 33.0405 19.056 32.3045 19.056C31.5685 19.056 30.9605 19.3013 30.4805 19.792C30.0112 20.2827 29.7765 20.928 29.7765 21.728C29.7765 22.528 30.0112 23.1733 30.4805 23.664C30.9605 24.1547 31.5685 24.4 32.3045 24.4ZM43.465 17.36C44.5423 17.36 45.4063 17.6747 46.057 18.304C46.7077 18.9333 47.033 19.8667 47.033 21.104V26H45.033V21.36C45.033 20.6133 44.857 20.0533 44.505 19.68C44.153 19.296 43.6517 19.104 43.001 19.104C42.265 19.104 41.6837 19.328 41.257 19.776C40.8303 20.2133 40.617 20.848 40.617 21.68V26H38.617V17.456H40.521V18.56C40.8517 18.1653 41.2677 17.8667 41.769 17.664C42.2703 17.4613 42.8357 17.36 43.465 17.36ZM54.5461 25.536C54.3115 25.728 54.0235 25.872 53.6821 25.968C53.3515 26.064 52.9995 26.112 52.6261 26.112C51.6875 26.112 50.9621 25.8667 50.4501 25.376C49.9381 24.8853 49.6821 24.1707 49.6821 23.232V19.12H48.2741V17.52H49.6821V15.568H51.6821V17.52H53.9701V19.12H51.6821V23.184C51.6821 23.6 51.7835 23.92 51.9861 24.144C52.1888 24.3573 52.4821 24.464 52.8661 24.464C53.3141 24.464 53.6875 24.3467 53.9861 24.112L54.5461 25.536ZM59.2954 17.36C60.554 17.36 61.514 17.664 62.1754 18.272C62.8474 18.8693 63.1834 19.776 63.1834 20.992V26H61.2954V24.96C61.05 25.3333 60.698 25.6213 60.2394 25.824C59.7914 26.016 59.2474 26.112 58.6074 26.112C57.9674 26.112 57.4074 26.0053 56.9274 25.792C56.4474 25.568 56.074 25.264 55.8074 24.88C55.5514 24.4853 55.4234 24.0427 55.4234 23.552C55.4234 22.784 55.706 22.1707 56.2714 21.712C56.8474 21.2427 57.7487 21.008 58.9754 21.008H61.1834V20.88C61.1834 20.2827 61.002 19.824 60.6394 19.504C60.2874 19.184 59.7594 19.024 59.0554 19.024C58.5754 19.024 58.1007 19.0987 57.6314 19.248C57.1727 19.3973 56.7834 19.6053 56.4634 19.872L55.6794 18.416C56.1274 18.0747 56.666 17.8133 57.2954 17.632C57.9247 17.4507 58.5914 17.36 59.2954 17.36ZM59.0234 24.656C59.5247 24.656 59.9674 24.544 60.3514 24.32C60.746 24.0853 61.0234 23.7547 61.1834 23.328V22.336H59.1194C57.9674 22.336 57.3914 22.7147 57.3914 23.472C57.3914 23.8347 57.5354 24.1227 57.8234 24.336C58.1114 24.5493 58.5114 24.656 59.0234 24.656ZM69.5883 26.112C68.7029 26.112 67.9083 25.9253 67.2043 25.552C66.5003 25.1787 65.9509 24.6613 65.5563 24C65.1616 23.328 64.9643 22.5707 64.9643 21.728C64.9643 20.8853 65.1616 20.1333 65.5563 19.472C65.9509 18.8107 66.4949 18.2933 67.1883 17.92C67.8923 17.5467 68.6923 17.36 69.5883 17.36C70.4309 17.36 71.1669 17.5307 71.7963 17.872C72.4363 18.2133 72.9163 18.704 73.2363 19.344L71.7003 20.24C71.4549 19.8453 71.1456 19.552 70.7723 19.36C70.4096 19.1573 70.0096 19.056 69.5723 19.056C68.8256 19.056 68.2069 19.3013 67.7163 19.792C67.2256 20.272 66.9803 20.9173 66.9803 21.728C66.9803 22.5387 67.2203 23.1893 67.7003 23.68C68.1909 24.16 68.8149 24.4 69.5723 24.4C70.0096 24.4 70.4096 24.304 70.7723 24.112C71.1456 23.9093 71.4549 23.6107 71.7003 23.216L73.2363 24.112C72.9056 24.752 72.4203 25.248 71.7803 25.6C71.1509 25.9413 70.4203 26.112 69.5883 26.112ZM80.0505 25.536C79.8158 25.728 79.5278 25.872 79.1865 25.968C78.8558 26.064 78.5038 26.112 78.1305 26.112C77.1918 26.112 76.4665 25.8667 75.9545 25.376C75.4425 24.8853 75.1865 24.1707 75.1865 23.232V19.12H73.7785V17.52H75.1865V15.568H77.1865V17.52H79.4745V19.12H77.1865V23.184C77.1865 23.6 77.2878 23.92 77.4905 24.144C77.6932 24.3573 77.9865 24.464 78.3705 24.464C78.8185 24.464 79.1918 24.3467 79.4905 24.112L80.0505 25.536ZM94.0696 17.456V26H92.1656V24.912C91.8456 25.296 91.4456 25.5947 90.9656 25.808C90.4856 26.0107 89.9683 26.112 89.4136 26.112C88.2723 26.112 87.371 25.7973 86.7096 25.168C86.059 24.528 85.7336 23.584 85.7336 22.336V17.456H87.7336V22.064C87.7336 22.832 87.9043 23.408 88.2456 23.792C88.5976 24.1653 89.0936 24.352 89.7336 24.352C90.4483 24.352 91.0136 24.1333 91.4296 23.696C91.8563 23.248 92.0696 22.608 92.0696 21.776V17.456H94.0696ZM99.1682 26.112C98.4749 26.112 97.7976 26.0213 97.1362 25.84C96.4749 25.6587 95.9469 25.4293 95.5522 25.152L96.3202 23.632C96.7042 23.888 97.1629 24.096 97.6962 24.256C98.2402 24.4053 98.7736 24.48 99.2962 24.48C100.491 24.48 101.088 24.1653 101.088 23.536C101.088 23.2373 100.934 23.0293 100.624 22.912C100.326 22.7947 99.8402 22.6827 99.1682 22.576C98.4642 22.4693 97.8882 22.3467 97.4402 22.208C97.0029 22.0693 96.6189 21.8293 96.2882 21.488C95.9682 21.136 95.8082 20.6507 95.8082 20.032C95.8082 19.2213 96.1442 18.576 96.8162 18.096C97.4989 17.6053 98.4162 17.36 99.5682 17.36C100.155 17.36 100.742 17.4293 101.328 17.568C101.915 17.696 102.395 17.872 102.768 18.096L102 19.616C101.275 19.1893 100.459 18.976 99.5522 18.976C98.9656 18.976 98.5176 19.0667 98.2082 19.248C97.9096 19.4187 97.7602 19.648 97.7602 19.936C97.7602 20.256 97.9202 20.4853 98.2402 20.624C98.5709 20.752 99.0776 20.8747 99.7602 20.992C100.443 21.0987 101.003 21.2213 101.44 21.36C101.878 21.4987 102.251 21.7333 102.56 22.064C102.88 22.3947 103.04 22.864 103.04 23.472C103.04 24.272 102.694 24.912 102 25.392C101.307 25.872 100.363 26.112 99.1682 26.112Z" fill="#F8F9FA"/>
</svg>
