<svg width="40" height="40" viewBox="0 0 40 40" fill="none" xmlns="http://www.w3.org/2000/svg">
<path d="M20 40C31.0457 40 40 31.0457 40 20C40 8.95431 31.0457 0 20 0C8.95431 0 0 8.95431 0 20C0 31.0457 8.95431 40 20 40Z" fill="#F26798"/>
<path d="M19.9996 7.29883C12.9872 7.29883 7.28223 12.9971 7.28223 20.0005C7.28223 27.004 12.9872 32.7019 19.9996 32.7019C27.0123 32.7019 32.7177 27.0043 32.7177 20.0005C32.7177 12.9971 27.0123 7.29883 19.9996 7.29883ZM28.3682 13.2937C29.8189 15.0916 30.7005 17.3623 30.7412 19.8365C30.2584 19.7374 28.2142 19.3563 25.7713 19.3563C24.983 19.3563 24.1534 19.3959 23.3217 19.4986C23.2514 19.3278 23.1812 19.1577 23.1074 18.9859C22.8917 18.4785 22.6592 17.9751 22.4186 17.4792C26.1784 15.9302 27.9921 13.7803 28.3682 13.2937ZM19.9996 9.28713C22.7095 9.28713 25.1866 10.2939 27.0787 11.9521C26.7792 12.3607 25.1549 14.3911 21.5294 15.7608C19.8513 12.6933 18.0145 10.1531 17.5774 9.56344C18.3564 9.38304 19.1671 9.28713 19.9996 9.28713ZM15.3845 10.3282C15.7549 10.8383 17.5945 13.4056 19.3158 16.4485C14.6964 17.6628 10.5943 17.742 9.60423 17.742H9.49906C10.2103 14.4641 12.425 11.7403 15.3845 10.3282ZM9.2552 20.0173C9.2552 19.9289 9.25663 19.8405 9.25948 19.7524C9.32365 19.7531 9.41849 19.7531 9.54149 19.7531C10.8749 19.7531 15.5032 19.6429 20.2727 18.2276C20.5622 18.7937 20.8378 19.3684 21.0941 19.9428C20.9736 19.9774 20.8549 20.0119 20.7369 20.0504C15.3666 21.7849 12.415 26.3765 11.9608 27.127C10.2781 25.231 9.2552 22.7418 9.2552 20.0173ZM19.9996 30.7467C17.5354 30.7467 15.2611 29.9121 13.4464 28.5128C13.7534 27.911 15.9813 23.8998 21.8663 21.8516C21.8699 21.8502 21.8738 21.8487 21.8781 21.8477C23.3537 25.6895 23.9787 28.9139 24.1502 29.9132C22.8732 30.4501 21.4706 30.7467 19.9996 30.7467ZM26.0854 28.8554C25.9414 28.0286 25.3624 25.0068 24.0261 21.3211C24.7755 21.2045 25.5046 21.1585 26.1884 21.1585C28.4341 21.1585 30.1907 21.6501 30.5989 21.7749C30.1137 24.7016 28.4381 27.2343 26.0854 28.8554Z" fill="#F1F2F2"/>
</svg>
