<svg width="36" height="36" viewBox="0 0 36 36" fill="none" xmlns="http://www.w3.org/2000/svg">
<path d="M13.5 22.5C9.495 22.5 1.5 24.51 1.5 28.5V31.5H25.5V28.5C25.5 24.51 17.505 22.5 13.5 22.5Z" fill="#FB610B"/>
<path d="M33.1498 10.26C33.1648 10.095 33.1798 9.93 33.1798 9.75C33.1798 9.57 33.1648 9.405 33.1348 9.24L34.2448 8.37C34.3498 8.295 34.3648 8.145 34.3048 8.04L33.2548 6.225C33.1948 6.105 33.0448 6.075 32.9398 6.105L31.6498 6.63C31.3798 6.42 31.0798 6.255 30.7648 6.12L30.5698 4.725C30.5398 4.59 30.4348 4.5 30.2998 4.5H28.1998C28.0648 4.5 27.9598 4.59 27.9448 4.725L27.7498 6.12C27.4348 6.255 27.1348 6.435 26.8648 6.63L25.5598 6.105C25.4398 6.06 25.3048 6.105 25.2448 6.225L24.1948 8.04C24.1348 8.16 24.1498 8.295 24.2548 8.37L25.3648 9.24C25.3348 9.405 25.3198 9.585 25.3198 9.75C25.3198 9.915 25.3348 10.095 25.3648 10.26L24.2548 11.13C24.1498 11.205 24.1348 11.355 24.1948 11.46L25.2448 13.275C25.3048 13.395 25.4548 13.425 25.5598 13.395L26.8648 12.87C27.1348 13.08 27.4348 13.245 27.7498 13.38L27.9448 14.775C27.9598 14.91 28.0648 15 28.1998 15H30.2998C30.4348 15 30.5398 14.91 30.5548 14.775L30.7498 13.38C31.0648 13.245 31.3648 13.065 31.6348 12.87L32.9398 13.395C33.0598 13.44 33.1948 13.395 33.2548 13.275L34.3048 11.46C34.3648 11.34 34.3498 11.205 34.2448 11.13L33.1498 10.26ZM29.2498 11.625C28.2148 11.625 27.3748 10.785 27.3748 9.75C27.3748 8.715 28.2148 7.875 29.2498 7.875C30.2848 7.875 31.1248 8.715 31.1248 9.75C31.1248 10.785 30.2848 11.625 29.2498 11.625Z" fill="#FB610B"/>
<path d="M29.8798 17.52L29.1298 16.215C29.0848 16.125 28.9798 16.095 28.9048 16.125L27.9748 16.5C27.7798 16.35 27.5698 16.23 27.3448 16.14L27.2098 15.15C27.1798 15.06 27.0898 15 26.9998 15H25.4998C25.4098 15 25.3348 15.06 25.3198 15.165L25.1848 16.155C24.9598 16.245 24.7498 16.38 24.5548 16.515L23.6248 16.14C23.5348 16.11 23.4448 16.14 23.3998 16.23L22.6498 17.535C22.6048 17.625 22.6198 17.715 22.6948 17.775L23.4898 18.39C23.4748 18.51 23.4598 18.63 23.4598 18.75C23.4598 18.87 23.4748 19.005 23.4898 19.11L22.6948 19.725C22.6198 19.785 22.6048 19.89 22.6498 19.965L23.3998 21.27C23.4448 21.36 23.5498 21.39 23.6248 21.36L24.5548 20.985C24.7498 21.135 24.9598 21.255 25.1848 21.345L25.3198 22.335C25.3348 22.44 25.4098 22.5 25.4998 22.5H26.9998C27.0898 22.5 27.1798 22.44 27.1798 22.335L27.3148 21.345C27.5398 21.255 27.7498 21.12 27.9448 20.985L28.8748 21.36C28.9648 21.39 29.0548 21.36 29.0998 21.27L29.8498 19.965C29.8948 19.875 29.8798 19.785 29.8048 19.725L29.0248 19.11C29.0398 18.99 29.0548 18.87 29.0548 18.75C29.0548 18.63 29.0398 18.495 29.0248 18.39L29.8198 17.775C29.8948 17.715 29.9098 17.61 29.8798 17.52ZM26.2498 19.995C25.5598 19.995 25.0048 19.425 25.0048 18.75C25.0048 18.06 25.5748 17.505 26.2498 17.505C26.9248 17.505 27.4948 18.075 27.4948 18.75C27.4948 19.44 26.9398 19.995 26.2498 19.995Z" fill="#FB610B"/>
<path d="M7.11 13.5H19.905C20.31 13.5 20.64 13.17 20.64 12.765V12.735C20.64 12.33 20.31 12 19.905 12H19.5C19.5 9.78 18.285 7.875 16.5 6.825V8.25C16.5 8.67 16.17 9 15.75 9C15.33 9 15 8.67 15 8.25V6.21C14.52 6.09 14.025 6 13.5 6C12.975 6 12.48 6.09 12 6.21V8.25C12 8.67 11.67 9 11.25 9C10.83 9 10.5 8.67 10.5 8.25V6.825C8.715 7.875 7.5 9.78 7.5 12H7.11C6.705 12 6.375 12.33 6.375 12.735V12.78C6.375 13.17 6.705 13.5 7.11 13.5Z" fill="#FB610B"/>
<path d="M13.5 19.5C16.29 19.5 18.615 17.58 19.29 15H7.70996C8.38496 17.58 10.71 19.5 13.5 19.5Z" fill="#FB610B"/>
</svg>
