<svg width="40" height="40" viewBox="0 0 40 40" fill="none" xmlns="http://www.w3.org/2000/svg">
<path d="M10.143 39.8585C7.76414 39.7503 6.4719 39.3545 5.61239 39.0192C4.4735 38.5758 3.66154 38.048 2.80679 37.1944C1.95203 36.3408 1.42301 35.5289 0.98196 34.39C0.646714 33.5305 0.25084 32.2382 0.142658 29.8594C0.0237763 27.288 0 26.5165 0 20.0018C0 13.4871 0.0261539 12.7167 0.141469 10.143C0.249651 7.76414 0.647903 6.47428 0.980771 5.61239C1.4242 4.4735 1.95322 3.66154 2.8056 2.8056C3.65917 1.95203 4.47113 1.42182 5.6112 0.980771C6.47071 0.645526 7.76295 0.249651 10.1418 0.141469C12.7144 0.0237763 13.4871 0 19.9994 0C26.5141 0 27.2845 0.0261539 29.8582 0.141469C32.237 0.249651 33.5269 0.647903 34.3888 0.980771C35.5277 1.42182 36.3396 1.95203 37.1944 2.8056C38.0492 3.65917 38.5758 4.47232 39.0192 5.6112C39.3545 6.47071 39.7503 7.76295 39.8585 10.1418C39.9762 12.7155 40 13.4859 40 20.0006C40 26.5129 39.9762 27.2856 39.8585 29.8594C39.7503 32.2382 39.3521 33.5305 39.0192 34.39C38.5758 35.5289 38.048 36.3408 37.1944 37.1944C36.3408 38.048 35.5277 38.5758 34.3888 39.0192C33.5293 39.3545 32.237 39.7503 29.8582 39.8585C27.2868 39.9762 26.5141 40 19.9994 40C13.4871 40 12.7144 39.9774 10.143 39.8585Z" fill="url(#paint0_radial_1483_72)"/>
<path d="M10.143 39.8585C7.76414 39.7503 6.4719 39.3545 5.61239 39.0192C4.4735 38.5758 3.66154 38.048 2.80679 37.1944C1.95203 36.3408 1.42301 35.5289 0.98196 34.39C0.646714 33.5305 0.25084 32.2382 0.142658 29.8594C0.0237763 27.288 0 26.5165 0 20.0018C0 13.4871 0.0261539 12.7167 0.141469 10.143C0.249651 7.76414 0.647903 6.47428 0.980771 5.61239C1.4242 4.4735 1.95322 3.66154 2.8056 2.8056C3.65917 1.95203 4.47113 1.42182 5.6112 0.980771C6.47071 0.645526 7.76295 0.249651 10.1418 0.141469C12.7144 0.0237763 13.4871 0 19.9994 0C26.5141 0 27.2845 0.0261539 29.8582 0.141469C32.237 0.249651 33.5269 0.647903 34.3888 0.980771C35.5277 1.42182 36.3396 1.95203 37.1944 2.8056C38.0492 3.65917 38.5758 4.47232 39.0192 5.6112C39.3545 6.47071 39.7503 7.76295 39.8585 10.1418C39.9762 12.7155 40 13.4859 40 20.0006C40 26.5129 39.9762 27.2856 39.8585 29.8594C39.7503 32.2382 39.3521 33.5305 39.0192 34.39C38.5758 35.5289 38.048 36.3408 37.1944 37.1944C36.3408 38.048 35.5277 38.5758 34.3888 39.0192C33.5293 39.3545 32.237 39.7503 29.8582 39.8585C27.2868 39.9762 26.5141 40 19.9994 40C13.4871 40 12.7144 39.9774 10.143 39.8585Z" fill="url(#paint1_radial_1483_72)"/>
<path d="M15.089 20.0851C15.089 17.3495 17.306 15.1313 20.0415 15.1313C22.7771 15.1313 24.9953 17.3495 24.9953 20.0851C24.9953 22.8207 22.7771 25.0389 20.0415 25.0389C17.306 25.0389 15.089 22.8207 15.089 20.0851ZM12.411 20.0851C12.411 24.2994 15.8272 27.7156 20.0415 27.7156C24.2559 27.7156 27.6721 24.2994 27.6721 20.0851C27.6721 15.8708 24.2559 12.4546 20.0415 12.4546C15.8272 12.4546 12.4112 15.8705 12.4112 20.0851H12.411ZM26.191 12.1521C26.1909 12.5047 26.2953 12.8495 26.4912 13.1429C26.687 13.4362 26.9654 13.6649 27.2912 13.8C27.617 13.9351 27.9755 13.9705 28.3214 13.9019C28.6674 13.8332 28.9852 13.6635 29.2347 13.4142C29.4842 13.1649 29.6541 12.8472 29.7231 12.5014C29.792 12.1555 29.7568 11.7969 29.622 11.471C29.4872 11.1451 29.2587 10.8665 28.9655 10.6705C28.6724 10.4744 28.3277 10.3697 27.975 10.3695H27.9743C27.5015 10.3698 27.0482 10.5576 26.7138 10.8918C26.3795 11.226 26.1914 11.6793 26.191 12.1521ZM14.038 32.181C12.5892 32.115 11.8018 31.8737 11.2785 31.6698C10.5847 31.3997 10.0896 31.078 9.56918 30.5583C9.04872 30.0385 8.72655 29.544 8.45764 28.8502C8.25364 28.3271 8.01231 27.5394 7.94645 26.0906C7.87441 24.5242 7.86003 24.0537 7.86003 20.0853C7.86003 16.117 7.8756 15.6477 7.94645 14.0801C8.01243 12.6313 8.25555 11.8451 8.45764 11.3205C8.72774 10.6267 9.04943 10.1317 9.56918 9.61121C10.0889 9.09075 10.5835 8.76858 11.2785 8.49967C11.8015 8.29567 12.5892 8.05434 14.038 7.98848C15.6044 7.91644 16.075 7.90206 20.0415 7.90206C24.0081 7.90206 24.4791 7.91739 26.0468 7.98872C27.4956 8.0547 28.2818 8.29781 28.8064 8.49991C29.5002 8.76882 29.9952 9.0917 30.5157 9.61145C31.0362 10.1312 31.3571 10.6269 31.6272 11.3207C31.8312 11.8438 32.0726 12.6315 32.1384 14.0803C32.2105 15.648 32.2248 16.1172 32.2248 20.0856C32.2248 24.0539 32.2105 24.5232 32.1384 26.0908C32.0724 27.5396 31.8299 28.3271 31.6272 28.8504C31.3571 29.5442 31.0354 30.0392 30.5157 30.5585C29.9959 31.0778 29.5002 31.3999 28.8064 31.67C28.2833 31.874 27.4956 32.1154 26.0468 32.1812C24.4805 32.2533 24.0099 32.2677 20.0415 32.2677C16.0732 32.2677 15.604 32.2533 14.038 32.1812V32.181ZM13.915 5.31497C12.3331 5.38701 11.2521 5.63785 10.308 6.00519C9.33095 6.38454 8.5027 6.89347 7.67564 7.71922C6.84859 8.54496 6.34096 9.37333 5.96161 10.3516C5.59427 11.2962 5.34343 12.3766 5.27139 13.9586C5.19816 15.543 5.1814 16.0496 5.1814 20.0851C5.1814 24.1206 5.19816 24.6272 5.27139 26.2116C5.34343 27.7937 5.59427 28.874 5.96161 29.8186C6.34096 30.7957 6.84871 31.6256 7.67564 32.451C8.50258 33.2764 9.32976 33.7846 10.308 34.165C11.2538 34.5323 12.3331 34.7832 13.915 34.8552C15.5003 34.9273 16.006 34.9452 20.0415 34.9452C24.0771 34.9452 24.5836 34.9285 26.1681 34.8552C27.7502 34.7832 28.8304 34.5323 29.7751 34.165C30.7522 33.7846 31.5804 33.2767 32.4075 32.451C33.2345 31.6252 33.7411 30.7957 34.1215 29.8186C34.4888 28.874 34.7409 27.7936 34.8117 26.2116C34.8837 24.626 34.9005 24.1206 34.9005 20.0851C34.9005 16.0496 34.8837 15.543 34.8117 13.9586C34.7397 12.3765 34.4888 11.2956 34.1215 10.3516C33.7411 9.37452 33.2332 8.54627 32.4075 7.71922C31.5817 6.89216 30.7521 6.38454 29.7763 6.00519C28.8304 5.63785 27.75 5.38582 26.1693 5.31497C24.5846 5.24257 24.0783 5.22498 20.0433 5.22498C16.0084 5.22498 15.5009 5.24174 13.9156 5.31497" fill="white"/>
<defs>
<radialGradient id="paint0_radial_1483_72" cx="0" cy="0" r="1" gradientUnits="userSpaceOnUse" gradientTransform="translate(2.58876 39.1237) scale(50.7852)">
<stop offset="0.09" stop-color="#FA8F21"/>
<stop offset="0.78" stop-color="#D82D7E"/>
</radialGradient>
<radialGradient id="paint1_radial_1483_72" cx="0" cy="0" r="1" gradientUnits="userSpaceOnUse" gradientTransform="translate(27.7066 37.8393) scale(44.6914)">
<stop offset="0.64" stop-color="#8C3AAA" stop-opacity="0"/>
<stop offset="1" stop-color="#8C3AAA"/>
</radialGradient>
</defs>
</svg>
