<svg width="36" height="36" viewBox="0 0 36 36" fill="none" xmlns="http://www.w3.org/2000/svg">
<path d="M10.6645 12.795L8.54949 10.665C7.19949 12.405 6.35949 14.415 6.10449 16.5H9.13449C9.34449 15.195 9.86949 13.92 10.6645 12.795ZM9.13449 19.5H6.10449C6.35949 21.585 7.18449 23.595 8.53449 25.335L10.6495 23.205C9.86949 22.08 9.34449 20.82 9.13449 19.5ZM10.6495 27.48C12.3895 28.83 14.4145 29.64 16.4995 29.895V26.85C15.1945 26.625 13.9345 26.115 12.8095 25.305L10.6495 27.48ZM19.4995 6.105V1.5L12.6745 8.325L19.4995 15V9.135C23.7595 9.855 26.9995 13.545 26.9995 18C26.9995 22.455 23.7595 26.145 19.4995 26.865V29.895C25.4245 29.16 29.9995 24.12 29.9995 18C29.9995 11.88 25.4245 6.84 19.4995 6.105Z" fill="#FB610B"/>
</svg>
