<svg width="36" height="36" viewBox="0 0 36 36" fill="none" xmlns="http://www.w3.org/2000/svg">
<path d="M32.5048 27.2547L24.5548 19.3047H23.0698L19.2598 23.1147V24.5997L27.2098 32.5497C27.7948 33.1347 28.7398 33.1347 29.3248 32.5497L32.5048 29.3697C33.0898 28.7997 33.0898 27.8397 32.5048 27.2547ZM28.2598 29.3847L21.8998 23.0247L22.9648 21.9597L29.3248 28.3197L28.2598 29.3847Z" fill="#FB610B"/>
<path d="M26.01 15.285L28.125 13.17L31.305 16.35C33.06 14.595 33.06 11.745 31.305 9.99L25.995 4.68L23.88 6.795V2.565L22.83 1.5L17.52 6.81L18.585 7.875H22.83L20.715 9.99L22.305 11.58L17.97 15.915L11.775 9.72V7.59L7.245 3.06L3 7.305L7.545 11.85H9.66L15.855 18.045L14.58 19.32H11.4L3.45 27.27C2.865 27.855 2.865 28.8 3.45 29.385L6.63 32.565C7.215 33.15 8.16 33.15 8.745 32.565L16.695 24.615V21.435L24.42 13.71L26.01 15.285ZM14.04 23.01L7.68 29.37L6.615 28.305L12.975 21.945L14.04 23.01Z" fill="#FB610B"/>
</svg>
