<svg width="80" height="80" viewBox="0 0 80 80" fill="none" xmlns="http://www.w3.org/2000/svg">
<g clip-path="url(#clip0_1:215)">
<path d="M57.2342 2.92632L57.4005 3.03755L57.2342 2.92632L52.3647 10.2037H10.129C6.53819 10.2037 3.61714 13.1247 3.61714 16.7156V57.0701C3.61714 60.661 6.53819 63.582 10.129 63.582H34.3932L32.6359 70.9626H28.7957C26.0795 70.9626 23.87 73.172 23.87 75.8882V76.6749H19.1412C18.1678 76.6749 17.3787 77.4641 17.3787 78.4373C17.3787 79.4106 18.1678 80.1998 19.1412 80.1998H60.859C61.8324 80.1998 62.6215 79.4106 62.6215 78.4373C62.6215 77.4641 61.8324 76.6749 60.859 76.6749H56.1302V75.8882C56.1302 73.172 53.9207 70.9626 51.2045 70.9626H47.3643L45.607 63.582H69.8712C73.462 63.582 76.3831 60.661 76.3831 57.0701V48.1906V16.7154C76.3831 13.1245 73.462 10.2035 69.871 10.2035H69.2689C70.9066 7.20832 70.1682 3.33202 67.2783 1.1879L67.1592 1.34852L67.2783 1.18789C64.0582 -1.20104 59.4817 -0.432202 57.2342 2.92632ZM42.519 38.2973C40.5924 38.2241 38.3996 38.2198 36.2406 39.2888C35.7542 36.6268 35.6904 34.0814 36.3798 32.0578C37.086 29.9848 38.586 28.4458 41.2907 27.8854L41.291 27.8854C41.9706 27.7437 42.7013 27.6771 43.3298 27.6845L44.3401 28.4341C45.8539 29.5572 47.3757 30.6862 48.8804 31.8028C49.6577 34.1161 49.3326 36.3332 47.3689 37.7077C46.8006 38.1056 46.098 38.2761 45.2739 38.334C44.5827 38.3825 43.8249 38.351 43.0072 38.317C42.8468 38.3104 42.684 38.3036 42.519 38.2973ZM60.164 4.88671L59.9978 4.77548L60.164 4.88669C61.2837 3.21307 63.5671 2.82359 65.178 4.01893L65.2968 3.8588L65.178 4.01894C66.7895 5.21441 67.078 7.51246 65.8011 9.06935C63.9195 11.3633 60.0011 16.1406 57.2427 19.5037L55.4312 21.7123L51.0701 18.4766L60.164 4.88671ZM36.3186 43.5064L36.3186 43.5064C38.27 41.6418 40.453 41.7187 42.7848 41.8332L42.8868 41.8382C45.1756 41.9511 47.5984 42.0706 49.8841 40.2206L49.7583 40.0651L49.8841 40.2206C52.6836 37.9545 53.3556 34.3729 52.3453 31.0328L66.5385 13.7284H69.8708C71.5177 13.7284 72.8578 15.0686 72.8578 16.7154V46.4279H23.9066C22.9332 46.4279 22.1441 47.2172 22.1441 48.1904C22.1441 49.1637 22.9332 49.9529 23.9066 49.9529H72.8581V57.0701C72.8581 58.7169 71.518 60.0571 69.8712 60.0571H69.856H69.8397H69.8222H69.8036H69.7837H69.7627H69.7405H69.7172H69.6927H69.6671H69.6403H69.6124H69.5834H69.5532H69.5219H69.4895H69.4559H69.4213H69.3855H69.3487H69.3107H69.2717H69.2315H69.1903H69.148H69.1047H69.0602H69.0147H68.9681H68.9205H68.8718H68.8221H68.7714H68.7196H68.6667H68.6129H68.558H68.5021H68.4452H68.3873H68.3283H68.2684H68.2075H68.1456H68.0827H68.0188H67.9539H67.8881H67.8213H67.7535H67.6848H67.6152H67.5445H67.473H67.4005H67.327H67.2527H67.1774H67.1011H67.024H66.946H66.867H66.7871H66.7064H66.6247H66.5422H66.4588H66.3745H66.2893H66.2033H66.1164H66.0286H65.94H65.8505H65.7601H65.669H65.577H65.4841H65.3905H65.296H65.2007H65.1045H65.0076H64.9098H64.8113H64.712H64.6118H64.5109H64.4092H64.3067H64.2035H64.0995H63.9947H63.8892H63.7829H63.6758H63.568H63.4595H63.3502H63.2402H63.1295H63.0181H62.9059H62.793H62.6794H62.5652H62.4502H62.3345H62.2181H62.1011H61.9833H61.8649H61.7458H61.6261H61.5057H61.3846H61.2629H61.1405H61.0175H60.8939H60.7696H60.6447H60.5192H60.393H60.2662H60.1388H60.0109H59.8823H59.7531H59.6233H59.4929H59.362H59.2305H59.0984H58.9657H58.8325H58.6987H58.5643H58.4294H58.294H58.158H58.0215H57.8844H57.7468H57.6087H57.4701H57.331H57.1913H57.0512H56.9106H56.7694H56.6278H56.4857H56.3431H56.2H56.0564H55.9124H55.768H55.623H55.4776H55.3318H55.1855H55.0388H54.8917H54.7441H54.5961H54.4476H54.2988H54.1495H53.9999H53.8498H53.6993H53.5485H53.3972H53.2456H53.0936H52.9412H52.7885H52.6354H52.4819H52.3281H52.1739H52.0194H51.8645H51.7093H51.5537H51.3979H51.2417H51.0852H50.9283H50.7712H50.6138H50.456H50.298H50.1397H49.9811H49.8222H49.663H49.5036H49.3438H49.1839H49.0236H48.8632H48.7024H48.5414H48.3802H48.2188H48.0571H47.8952H47.733H47.5707H47.4081H47.2454H47.0824H46.9192H46.7559H46.5923H46.4286H46.2647H46.1006H45.9363H45.7719H45.6073H45.4425H45.2776H45.1126H44.9474H44.7821H44.6166H44.4511H44.2853H44.1195H43.9536H43.7875H43.6214H43.4551H43.2887H43.1223H42.9558H42.7891H42.6224H42.4557H42.2888H42.1219H41.955H41.788H41.6209H41.4538H41.2866H41.1194H40.9522H40.785H40.6177H40.4504H40.2831H40.1158H39.9485H39.7812H39.6139H39.4466H39.2794H39.1121H38.9449H38.7777H38.6105H38.4434H38.2763H38.1092H37.9422H37.7753H37.6084H37.4416H37.2749H37.1082H36.9417H36.7752H36.6088H36.4425H36.2762H36.1101H35.9441H35.7782H35.6125H35.4468H35.2813H35.1159H34.9506H34.7855H34.6205H34.4557H34.291H34.1265H33.9622H33.798H33.634H33.4702H33.3065H33.1431H32.9798H32.8167H32.6538H32.4912H32.3287H32.1665H32.0044H31.8426H31.6811H31.5197H31.3586H31.1977H31.0371H30.8768H30.7167H30.5568H30.3972H30.2379H30.0789H29.9201H29.7616H29.6035H29.4456H29.288H29.1307H28.9737H28.817H28.6607H28.5046H28.3489H28.1935H28.0385H27.8838H27.7294H27.5754H27.4217H27.2684H27.1155H26.9629H26.8107H26.6589H26.5074H26.3564H26.2057H26.0554H25.9056H25.7561H25.607H25.4584H25.3102H25.1623H25.015H24.868H24.7215H24.5754H24.4298H24.2847H24.1399H23.9957H23.8519H23.7086H23.5657H23.4234H23.2815H23.1401H22.9992H22.8588H22.7188H22.5794H22.4406H22.3022H22.1643H22.027H21.8902H21.7539H21.6182H21.483H21.3484H21.2143H21.0808H20.9478H20.8154H20.6836H20.5523H20.4217H20.2916H20.1621H20.0332H19.9049H19.7772H19.6501H19.5236H19.3978H19.2725H19.1479H19.0239H18.9006H18.7779H18.6558H18.5344H18.4137H18.2936H18.1741H18.0554H17.9373H17.8199H17.7031H17.5871H17.4718H17.3571H17.2432H17.1299H17.0174H16.9055H16.7944H16.6841H16.5744H16.4655H16.3573H16.2499H16.1432H16.0373H15.9321H15.8277H15.724H15.6211H15.519H15.4177H15.3172H15.2174H15.1184H15.0203H14.9229H14.8264H14.7306H14.6357H14.5416H14.4483H14.3559H14.2643H14.1735H14.0836H13.9945H13.9063H13.8189H13.7324H13.6468H13.5621H13.4782H13.3952H13.3131H13.2318H13.1515H13.0721H12.9936H12.9159H12.8392H12.7635H12.6886H12.6147H12.5417H12.4696H12.3985H12.3283H12.2591H12.1909H12.1236H12.0572H11.9919H11.9275H11.8641H11.8016H11.7402H11.6797H11.6203H11.5618H11.5044H11.448H11.3925H11.3382H11.2848H11.2324H11.1811H11.1309H11.0817H11.0335H10.9864H10.9403H10.8953H10.8514H10.8085H10.7667H10.726H10.6864H10.6479H10.6105H10.5741H10.5389H10.5048H10.4718H10.4399H10.4091H10.3795H10.351H10.3236H10.2974H10.2723H10.2484H10.2256H10.204H10.1835H10.1642H10.1461H10.1292C8.48235 60.0571 7.14223 58.7169 7.14223 57.0701V49.953H11.4071C12.3806 49.953 13.1696 49.1638 13.1696 48.1906C13.1696 47.2173 12.3806 46.4281 11.4071 46.4281H7.14192V16.7154C7.14192 15.0686 8.48204 13.7284 10.1289 13.7284H50.006L43.0257 24.1599C39.9575 24.2113 36.8864 25.295 34.8614 27.659C32.0732 30.9136 31.6125 35.9925 33.398 42.6864C33.7411 43.9733 35.3465 44.4349 36.3186 43.5064ZM49.1077 21.4095L53.1934 24.4408L50.046 28.2781L46.3477 25.5341L49.1077 21.4095ZM52.6051 75.8882V76.6749H27.395V75.8882C27.395 75.1162 28.0235 74.4876 28.7957 74.4876H51.2043C51.9765 74.4876 52.6051 75.1162 52.6051 75.8882ZM41.9834 63.582L43.7406 70.9626H36.2594L38.0166 63.582H41.9834Z" fill="#FB610B" stroke="#FB610B" stroke-width="0.4"/>
<path d="M17.3551 46.658C16.6029 46.8118 16.0989 47.4619 16.0989 48.191C16.0989 49.1683 16.9925 49.9168 17.9661 49.7222C18.8312 49.5466 19.3583 48.7129 19.1926 47.8847C19.0187 47.0301 18.1897 46.4901 17.3551 46.658Z" fill="#FB610B"/>
</g>
<defs>
<clipPath id="clip0_1:215">
<rect width="80" height="80" fill="white"/>
</clipPath>
</defs>
</svg>
