<svg width="80" height="80" viewBox="0 0 80 80" fill="none" xmlns="http://www.w3.org/2000/svg">
<g clip-path="url(#clip0_1:166)">
<path d="M20.2 7.5C20.2 6.23106 21.2311 5.2 22.5 5.2H57.5C58.7689 5.2 59.8 6.23106 59.8 7.5V13C59.8 14.215 60.785 15.2 62 15.2H63C64.215 15.2 65.2 14.215 65.2 13V7.5C65.2 3.25379 61.7462 -0.2 57.5 -0.2H22.5C18.2538 -0.2 14.8 3.25379 14.8 7.5V13C14.8 14.215 15.785 15.2 17 15.2H18C19.215 15.2 20.2 14.215 20.2 13V7.5Z" fill="#FB610B" stroke="#FB610B" stroke-width="0.4"/>
<path d="M59.8 64.8H20.2V62C20.2 60.785 19.215 59.8 18 59.8H17C15.785 59.8 14.8 60.785 14.8 62V72.5C14.8 76.7462 18.2538 80.2 22.5 80.2H57.5C61.7462 80.2 65.2 76.7462 65.2 72.5V62C65.2 60.785 64.215 59.8 63 59.8H62C60.785 59.8 59.8 60.785 59.8 62V64.8ZM57.5 74.8H22.5C21.2311 74.8 20.2 73.7689 20.2 72.5V70.2H59.8V72.5C59.8 73.7689 58.7689 74.8 57.5 74.8Z" fill="#FB610B" stroke="#FB610B" stroke-width="0.4"/>
<path d="M54.8 51.3098C54.8 53.715 57.708 54.9196 59.4087 53.2188L73.7272 38.9004C74.5864 38.0412 74.5864 36.6482 73.7272 35.7891L59.4087 21.4706C57.708 19.7699 54.8 20.9744 54.8 23.3796C54.8 24.0956 55.0844 24.7823 55.5907 25.2886L67.6469 37.3447L55.5907 49.4008C55.0844 49.9072 54.8 50.5938 54.8 51.3098Z" fill="#FB610B" stroke="#FB610B" stroke-width="0.4"/>
<path d="M25.2 49.1204C25.2 48.4044 24.9156 47.7177 24.4093 47.2114L12.3531 35.1553L24.4093 23.0992C24.9155 22.5929 25.2 21.9062 25.2 21.1902C25.2 18.785 22.292 17.5804 20.5913 19.2812L6.27279 33.5996C5.41364 34.4588 5.41364 35.8518 6.27279 36.7109L20.5913 51.0294C22.292 52.7301 25.2 51.5256 25.2 49.1204Z" fill="#FB610B" stroke="#FB610B" stroke-width="0.4"/>
</g>
<defs>
<clipPath id="clip0_1:166">
<rect width="80" height="80" fill="white"/>
</clipPath>
</defs>
</svg>
