<svg width="80" height="80" viewBox="0 0 80 80" fill="none" xmlns="http://www.w3.org/2000/svg">
<g clip-path="url(#clip0_1:1694)">
<path d="M53.917 24.6362C53.0761 24.6362 52.3936 25.317 52.3936 26.1591C52.3936 27.0005 53.0761 27.6825 53.917 27.6825C54.7596 27.6825 55.4404 27.0005 55.4404 26.1591C55.4404 25.317 54.7596 24.6362 53.917 24.6362Z" fill="#FB610B"/>
<path d="M26.2368 52.3154C25.3942 52.3154 24.7134 52.998 24.7134 53.8389C24.7134 54.6815 25.3942 55.3623 26.2368 55.3623C27.0777 55.3623 27.7603 54.6815 27.7603 53.8389C27.7603 52.998 27.0777 52.3154 26.2368 52.3154Z" fill="#FB610B"/>
<mask id="path-3-outside-1_1:1694" maskUnits="userSpaceOnUse" x="0.078125" y="0" width="80" height="80" fill="black">
<rect fill="white" x="0.078125" width="80" height="80"/>
<path d="M77.1828 10.3723C76.6687 10.2527 76.1283 10.408 75.757 10.7829L69.4413 17.1486H66.4134L63.0803 13.6953V10.6252L69.3056 4.30708C69.6739 3.93336 69.8239 3.39599 69.7019 2.88481C69.5805 2.37422 69.2044 1.96241 68.7069 1.79459C67.143 1.26734 65.5065 1.00014 63.842 1.00014C58.8801 1.00014 54.3723 3.31387 51.4742 7.34801C48.7618 11.1245 47.9257 15.7525 49.1236 20.1818L37.9019 31.4035L19.2065 12.6652V8.98749C19.2065 8.4525 18.9256 7.95619 18.4668 7.68126L7.69497 1.21735C7.09511 0.857322 6.32804 0.951942 5.83411 1.44646L1.52564 5.75435C1.03171 6.24887 0.937088 7.01594 1.29652 7.6158L7.75924 18.3876C8.03417 18.8464 8.52988 19.1267 9.06487 19.1273L12.7414 19.1285L31.4386 37.8668L20.2598 49.0456C15.8305 47.8483 11.2001 48.6856 7.42182 51.3998C3.39006 54.2961 1.07812 58.8028 1.07812 63.7646C1.07812 65.4285 1.34532 67.0656 1.87257 68.6289C2.04099 69.1294 2.45696 69.5073 2.97112 69.6263C3.48587 69.7459 4.02562 69.5906 4.39756 69.2157L10.7127 62.8506H13.7572L17.226 66.3194V69.3639L10.8609 75.679C10.486 76.0509 10.3306 76.5907 10.4503 77.1054C10.5693 77.6196 10.9472 78.0356 11.4476 78.204C13.0109 78.7312 14.648 78.9984 16.3119 78.9984C21.2738 78.9984 25.7799 76.6859 28.6768 72.6542C31.391 68.8759 32.2283 64.2461 31.031 59.8168L40.0091 50.8386L42.0658 53.0726L41.122 54.0158C40.5269 54.6109 40.5269 55.5756 41.122 56.1707C41.7171 56.7652 42.6811 56.7652 43.2768 56.1707L44.1313 55.3161L63.4278 76.2765C63.4421 76.292 63.457 76.3068 63.4719 76.3217C67.0424 79.8923 72.8273 79.8935 76.3997 76.3211C79.9619 72.7571 79.9619 66.9579 76.3997 63.3939C76.3842 63.3784 76.3682 63.3636 76.3521 63.3487L55.359 44.0891L56.204 43.244C56.7991 42.6495 56.7991 41.6849 56.204 41.0898C55.6089 40.4947 54.6449 40.4947 54.0492 41.0898L53.1119 42.0277L50.8738 39.9734L59.8954 30.9518C61.1778 31.2946 62.5013 31.4683 63.842 31.4683C72.2424 31.4683 79.0758 24.6343 79.0758 16.2345C79.0758 14.5701 78.8086 12.9336 78.2814 11.3696C78.113 10.8692 77.697 10.4913 77.1828 10.3723ZM14.4517 16.5291C14.166 16.2429 13.7786 16.0971 13.3739 16.0971L9.92835 16.0959L4.52134 7.06831L7.14748 4.44216L16.1596 9.85037V13.296C16.1596 13.6994 16.3197 14.0862 16.6047 14.3719L35.7477 33.5583L33.5928 35.7125L14.4517 16.5291ZM53.2024 46.2457L74.2669 65.5702C76.6199 67.9482 76.6127 71.7984 74.2449 74.1675C71.8716 76.5407 68.0297 76.5478 65.6469 74.1883L46.2874 53.1595L53.2024 46.2457ZM50.9553 44.1837L44.2218 50.916L42.1652 48.682L48.7171 42.1294L50.9553 44.1837ZM63.842 28.4215C62.5096 28.4215 61.1992 28.2078 59.9483 27.7865C59.4003 27.6026 58.7944 27.7442 58.385 28.1531C50.7476 35.7905 34.2909 52.2466 28.231 58.307C27.8216 58.7165 27.6794 59.3223 27.8645 59.8709C29.1308 63.6313 28.525 67.6423 26.2018 70.8766C23.8851 74.1014 20.28 75.9516 16.3119 75.9516C15.8662 75.9516 15.4229 75.9272 14.9837 75.8801L19.8224 71.0789C20.1104 70.7933 20.2729 70.4041 20.2729 69.9977V65.688C20.2729 65.2839 20.1122 64.8965 19.8265 64.6109L15.4651 60.2494C15.1795 59.9638 14.7921 59.8031 14.388 59.8031H10.0783C9.67187 59.8031 9.28268 59.9656 8.99644 60.2536L4.19582 65.0923C4.14821 64.6531 4.12441 64.2098 4.12441 63.764C4.12441 59.7954 5.97396 56.1909 9.19936 53.8742C12.4331 51.5509 16.4446 50.9445 20.2056 52.2115C20.7537 52.3966 21.3595 52.2543 21.7689 51.8449C21.8528 51.7616 51.9015 21.7124 51.9229 21.6909C52.3323 21.2815 52.474 20.6763 52.2895 20.1276C51.0225 16.3672 51.6271 12.3575 53.9486 9.12555C56.2671 5.89776 59.8728 4.04702 63.8414 4.04702C64.3008 4.04702 64.7573 4.07261 65.2096 4.1226L60.4714 8.93155C60.1905 9.2166 60.0334 9.60043 60.0334 10.0003V14.31C60.0334 14.7051 60.1864 15.0842 60.4607 15.3681L64.6698 19.7295C64.9566 20.0271 65.3524 20.1949 65.766 20.1949H70.0756C70.4815 20.1949 70.8707 20.033 71.1569 19.7444L75.9575 14.9063C76.0051 15.3455 76.029 15.7888 76.029 16.2345C76.029 22.9543 70.5618 28.4215 63.842 28.4215Z"/>
</mask>
<path d="M77.1828 10.3723C76.6687 10.2527 76.1283 10.408 75.757 10.7829L69.4413 17.1486H66.4134L63.0803 13.6953V10.6252L69.3056 4.30708C69.6739 3.93336 69.8239 3.39599 69.7019 2.88481C69.5805 2.37422 69.2044 1.96241 68.7069 1.79459C67.143 1.26734 65.5065 1.00014 63.842 1.00014C58.8801 1.00014 54.3723 3.31387 51.4742 7.34801C48.7618 11.1245 47.9257 15.7525 49.1236 20.1818L37.9019 31.4035L19.2065 12.6652V8.98749C19.2065 8.4525 18.9256 7.95619 18.4668 7.68126L7.69497 1.21735C7.09511 0.857322 6.32804 0.951942 5.83411 1.44646L1.52564 5.75435C1.03171 6.24887 0.937088 7.01594 1.29652 7.6158L7.75924 18.3876C8.03417 18.8464 8.52988 19.1267 9.06487 19.1273L12.7414 19.1285L31.4386 37.8668L20.2598 49.0456C15.8305 47.8483 11.2001 48.6856 7.42182 51.3998C3.39006 54.2961 1.07812 58.8028 1.07812 63.7646C1.07812 65.4285 1.34532 67.0656 1.87257 68.6289C2.04099 69.1294 2.45696 69.5073 2.97112 69.6263C3.48587 69.7459 4.02562 69.5906 4.39756 69.2157L10.7127 62.8506H13.7572L17.226 66.3194V69.3639L10.8609 75.679C10.486 76.0509 10.3306 76.5907 10.4503 77.1054C10.5693 77.6196 10.9472 78.0356 11.4476 78.204C13.0109 78.7312 14.648 78.9984 16.3119 78.9984C21.2738 78.9984 25.7799 76.6859 28.6768 72.6542C31.391 68.8759 32.2283 64.2461 31.031 59.8168L40.0091 50.8386L42.0658 53.0726L41.122 54.0158C40.5269 54.6109 40.5269 55.5756 41.122 56.1707C41.7171 56.7652 42.6811 56.7652 43.2768 56.1707L44.1313 55.3161L63.4278 76.2765C63.4421 76.292 63.457 76.3068 63.4719 76.3217C67.0424 79.8923 72.8273 79.8935 76.3997 76.3211C79.9619 72.7571 79.9619 66.9579 76.3997 63.3939C76.3842 63.3784 76.3682 63.3636 76.3521 63.3487L55.359 44.0891L56.204 43.244C56.7991 42.6495 56.7991 41.6849 56.204 41.0898C55.6089 40.4947 54.6449 40.4947 54.0492 41.0898L53.1119 42.0277L50.8738 39.9734L59.8954 30.9518C61.1778 31.2946 62.5013 31.4683 63.842 31.4683C72.2424 31.4683 79.0758 24.6343 79.0758 16.2345C79.0758 14.5701 78.8086 12.9336 78.2814 11.3696C78.113 10.8692 77.697 10.4913 77.1828 10.3723ZM14.4517 16.5291C14.166 16.2429 13.7786 16.0971 13.3739 16.0971L9.92835 16.0959L4.52134 7.06831L7.14748 4.44216L16.1596 9.85037V13.296C16.1596 13.6994 16.3197 14.0862 16.6047 14.3719L35.7477 33.5583L33.5928 35.7125L14.4517 16.5291ZM53.2024 46.2457L74.2669 65.5702C76.6199 67.9482 76.6127 71.7984 74.2449 74.1675C71.8716 76.5407 68.0297 76.5478 65.6469 74.1883L46.2874 53.1595L53.2024 46.2457ZM50.9553 44.1837L44.2218 50.916L42.1652 48.682L48.7171 42.1294L50.9553 44.1837ZM63.842 28.4215C62.5096 28.4215 61.1992 28.2078 59.9483 27.7865C59.4003 27.6026 58.7944 27.7442 58.385 28.1531C50.7476 35.7905 34.2909 52.2466 28.231 58.307C27.8216 58.7165 27.6794 59.3223 27.8645 59.8709C29.1308 63.6313 28.525 67.6423 26.2018 70.8766C23.8851 74.1014 20.28 75.9516 16.3119 75.9516C15.8662 75.9516 15.4229 75.9272 14.9837 75.8801L19.8224 71.0789C20.1104 70.7933 20.2729 70.4041 20.2729 69.9977V65.688C20.2729 65.2839 20.1122 64.8965 19.8265 64.6109L15.4651 60.2494C15.1795 59.9638 14.7921 59.8031 14.388 59.8031H10.0783C9.67187 59.8031 9.28268 59.9656 8.99644 60.2536L4.19582 65.0923C4.14821 64.6531 4.12441 64.2098 4.12441 63.764C4.12441 59.7954 5.97396 56.1909 9.19936 53.8742C12.4331 51.5509 16.4446 50.9445 20.2056 52.2115C20.7537 52.3966 21.3595 52.2543 21.7689 51.8449C21.8528 51.7616 51.9015 21.7124 51.9229 21.6909C52.3323 21.2815 52.474 20.6763 52.2895 20.1276C51.0225 16.3672 51.6271 12.3575 53.9486 9.12555C56.2671 5.89776 59.8728 4.04702 63.8414 4.04702C64.3008 4.04702 64.7573 4.07261 65.2096 4.1226L60.4714 8.93155C60.1905 9.2166 60.0334 9.60043 60.0334 10.0003V14.31C60.0334 14.7051 60.1864 15.0842 60.4607 15.3681L64.6698 19.7295C64.9566 20.0271 65.3524 20.1949 65.766 20.1949H70.0756C70.4815 20.1949 70.8707 20.033 71.1569 19.7444L75.9575 14.9063C76.0051 15.3455 76.029 15.7888 76.029 16.2345C76.029 22.9543 70.5618 28.4215 63.842 28.4215Z" fill="#FB610B"/>
<path d="M77.1828 10.3723C76.6687 10.2527 76.1283 10.408 75.757 10.7829L69.4413 17.1486H66.4134L63.0803 13.6953V10.6252L69.3056 4.30708C69.6739 3.93336 69.8239 3.39599 69.7019 2.88481C69.5805 2.37422 69.2044 1.96241 68.7069 1.79459C67.143 1.26734 65.5065 1.00014 63.842 1.00014C58.8801 1.00014 54.3723 3.31387 51.4742 7.34801C48.7618 11.1245 47.9257 15.7525 49.1236 20.1818L37.9019 31.4035L19.2065 12.6652V8.98749C19.2065 8.4525 18.9256 7.95619 18.4668 7.68126L7.69497 1.21735C7.09511 0.857322 6.32804 0.951942 5.83411 1.44646L1.52564 5.75435C1.03171 6.24887 0.937088 7.01594 1.29652 7.6158L7.75924 18.3876C8.03417 18.8464 8.52988 19.1267 9.06487 19.1273L12.7414 19.1285L31.4386 37.8668L20.2598 49.0456C15.8305 47.8483 11.2001 48.6856 7.42182 51.3998C3.39006 54.2961 1.07812 58.8028 1.07812 63.7646C1.07812 65.4285 1.34532 67.0656 1.87257 68.6289C2.04099 69.1294 2.45696 69.5073 2.97112 69.6263C3.48587 69.7459 4.02562 69.5906 4.39756 69.2157L10.7127 62.8506H13.7572L17.226 66.3194V69.3639L10.8609 75.679C10.486 76.0509 10.3306 76.5907 10.4503 77.1054C10.5693 77.6196 10.9472 78.0356 11.4476 78.204C13.0109 78.7312 14.648 78.9984 16.3119 78.9984C21.2738 78.9984 25.7799 76.6859 28.6768 72.6542C31.391 68.8759 32.2283 64.2461 31.031 59.8168L40.0091 50.8386L42.0658 53.0726L41.122 54.0158C40.5269 54.6109 40.5269 55.5756 41.122 56.1707C41.7171 56.7652 42.6811 56.7652 43.2768 56.1707L44.1313 55.3161L63.4278 76.2765C63.4421 76.292 63.457 76.3068 63.4719 76.3217C67.0424 79.8923 72.8273 79.8935 76.3997 76.3211C79.9619 72.7571 79.9619 66.9579 76.3997 63.3939C76.3842 63.3784 76.3682 63.3636 76.3521 63.3487L55.359 44.0891L56.204 43.244C56.7991 42.6495 56.7991 41.6849 56.204 41.0898C55.6089 40.4947 54.6449 40.4947 54.0492 41.0898L53.1119 42.0277L50.8738 39.9734L59.8954 30.9518C61.1778 31.2946 62.5013 31.4683 63.842 31.4683C72.2424 31.4683 79.0758 24.6343 79.0758 16.2345C79.0758 14.5701 78.8086 12.9336 78.2814 11.3696C78.113 10.8692 77.697 10.4913 77.1828 10.3723ZM14.4517 16.5291C14.166 16.2429 13.7786 16.0971 13.3739 16.0971L9.92835 16.0959L4.52134 7.06831L7.14748 4.44216L16.1596 9.85037V13.296C16.1596 13.6994 16.3197 14.0862 16.6047 14.3719L35.7477 33.5583L33.5928 35.7125L14.4517 16.5291ZM53.2024 46.2457L74.2669 65.5702C76.6199 67.9482 76.6127 71.7984 74.2449 74.1675C71.8716 76.5407 68.0297 76.5478 65.6469 74.1883L46.2874 53.1595L53.2024 46.2457ZM50.9553 44.1837L44.2218 50.916L42.1652 48.682L48.7171 42.1294L50.9553 44.1837ZM63.842 28.4215C62.5096 28.4215 61.1992 28.2078 59.9483 27.7865C59.4003 27.6026 58.7944 27.7442 58.385 28.1531C50.7476 35.7905 34.2909 52.2466 28.231 58.307C27.8216 58.7165 27.6794 59.3223 27.8645 59.8709C29.1308 63.6313 28.525 67.6423 26.2018 70.8766C23.8851 74.1014 20.28 75.9516 16.3119 75.9516C15.8662 75.9516 15.4229 75.9272 14.9837 75.8801L19.8224 71.0789C20.1104 70.7933 20.2729 70.4041 20.2729 69.9977V65.688C20.2729 65.2839 20.1122 64.8965 19.8265 64.6109L15.4651 60.2494C15.1795 59.9638 14.7921 59.8031 14.388 59.8031H10.0783C9.67187 59.8031 9.28268 59.9656 8.99644 60.2536L4.19582 65.0923C4.14821 64.6531 4.12441 64.2098 4.12441 63.764C4.12441 59.7954 5.97396 56.1909 9.19936 53.8742C12.4331 51.5509 16.4446 50.9445 20.2056 52.2115C20.7537 52.3966 21.3595 52.2543 21.7689 51.8449C21.8528 51.7616 51.9015 21.7124 51.9229 21.6909C52.3323 21.2815 52.474 20.6763 52.2895 20.1276C51.0225 16.3672 51.6271 12.3575 53.9486 9.12555C56.2671 5.89776 59.8728 4.04702 63.8414 4.04702C64.3008 4.04702 64.7573 4.07261 65.2096 4.1226L60.4714 8.93155C60.1905 9.2166 60.0334 9.60043 60.0334 10.0003V14.31C60.0334 14.7051 60.1864 15.0842 60.4607 15.3681L64.6698 19.7295C64.9566 20.0271 65.3524 20.1949 65.766 20.1949H70.0756C70.4815 20.1949 70.8707 20.033 71.1569 19.7444L75.9575 14.9063C76.0051 15.3455 76.029 15.7888 76.029 16.2345C76.029 22.9543 70.5618 28.4215 63.842 28.4215Z" stroke="#FB610B" stroke-width="0.8" mask="url(#path-3-outside-1_1:1694)"/>
<path d="M48.5314 29.3902L29.4676 48.454C28.8731 49.0485 28.8731 50.0131 29.4676 50.6082C30.0627 51.2033 31.0273 51.2033 31.6224 50.6082L50.6862 31.5444C51.2813 30.9499 51.2813 29.9853 50.6862 29.3902C50.0912 28.7951 49.1265 28.7951 48.5314 29.3902Z" fill="#FB610B"/>
<path d="M67.7826 69.8592C68.3777 70.4525 69.3424 70.4525 69.9375 69.8556C70.5314 69.2599 70.5296 68.2953 69.9339 67.7014L56.2021 54.0136C55.6064 53.4197 54.6412 53.4215 54.0479 54.0172C53.4534 54.6135 53.4551 55.5776 54.0508 56.1715L67.7826 69.8592Z" fill="#FB610B"/>
</g>
<defs>
<clipPath id="clip0_1:1694">
<rect width="79.8438" height="80" fill="white"/>
</clipPath>
</defs>
</svg>
