<svg width="80" height="80" viewBox="0 0 80 80" fill="none" xmlns="http://www.w3.org/2000/svg">
<g clip-path="url(#clip0_1:243)">
<mask id="path-1-outside-1_1:243" maskUnits="userSpaceOnUse" x="4.39062" y="-1" width="71" height="82" fill="black">
<rect fill="white" x="4.39062" y="-1" width="71" height="82"/>
<path d="M73.0469 34.1859C73.9098 34.1859 74.6094 33.4864 74.6094 32.6234C74.6094 31.7605 73.9098 31.0609 73.0469 31.0609H67.1278V26.807H73.0469C73.9098 26.807 74.6094 26.1075 74.6094 25.2445C74.6094 24.3816 73.9098 23.682 73.0469 23.682H67.1278V21.1256C67.1278 20.7114 66.9634 20.3142 66.6706 20.0212L62.1523 15.4992C61.8594 15.2059 61.4617 15.0411 61.047 15.0411H58.49V9.12734C58.49 8.26437 57.7905 7.56484 56.9275 7.56484C56.0645 7.56484 55.365 8.26437 55.365 9.12734V15.0411H51.1103V9.12734C51.1103 8.26437 50.4108 7.56484 49.5478 7.56484C48.6848 7.56484 47.9853 8.26437 47.9853 9.12734V15.0411H43.735V9.44172C43.735 4.23547 39.4991 0 34.2922 0C30.0322 0 26.3298 2.87937 25.2006 6.87953C21.9534 7.20953 18.9448 8.64516 16.6231 10.9956C14.0013 13.6503 12.5573 17.1677 12.5573 20.8997C12.5573 22.7517 12.923 24.5861 13.6241 26.2866C11.4308 27.452 9.54891 29.1281 8.12234 31.1995C6.33531 33.7945 5.39062 36.8369 5.39062 39.9978C5.39062 45.8167 8.57219 51.0359 13.6233 53.7134C12.923 55.4108 12.5577 57.2436 12.5577 59.0959C12.5577 62.828 14.0016 66.3453 16.6234 69C18.945 71.3505 21.9536 72.7861 25.2008 73.1161C26.3298 77.1189 30.0325 80 34.2925 80C39.4992 80 43.7353 75.7645 43.7353 70.5583V64.9545H47.9856V70.8727C47.9856 71.7356 48.6852 72.4352 49.5481 72.4352C50.4111 72.4352 51.1106 71.7356 51.1106 70.8727V64.9545H55.3653V70.8727C55.3653 71.7356 56.0648 72.4352 56.9278 72.4352C57.7908 72.4352 58.4903 71.7356 58.4903 70.8727V64.9545H61.0473C61.4617 64.9545 61.8591 64.79 62.1522 64.4969L66.6705 59.9792C66.9634 59.6862 67.1281 59.2887 67.1281 58.8744V56.3134H73.0469C73.9098 56.3134 74.6094 55.6139 74.6094 54.7509C74.6094 53.888 73.9098 53.1884 73.0469 53.1884H67.1278V48.9391H73.0469C73.9098 48.9391 74.6094 48.2395 74.6094 47.3766C74.6094 46.5136 73.9098 45.8141 73.0469 45.8141H67.1278V41.5603H73.0469C73.9098 41.5603 74.6094 40.8608 74.6094 39.9978C74.6094 39.1348 73.9098 38.4353 73.0469 38.4353H67.1278V34.1859H73.0469ZM34.2925 76.875C31.7005 76.875 29.4184 75.2811 28.4577 72.9794C29.5973 72.7753 30.7086 72.4286 31.7772 71.9383C33.3302 71.2253 34.7191 70.2495 35.9052 69.038C36.5087 68.4212 36.4983 67.432 35.8817 66.8283C35.265 66.2247 34.2759 66.2352 33.672 66.8517C32.7541 67.7892 31.678 68.545 30.4737 69.0978C29.2013 69.6816 27.8525 70.0052 26.4645 70.0614C20.5158 69.9633 15.6827 65.0527 15.6827 59.0955C15.6827 57.2131 16.1663 55.3584 17.0811 53.7316C17.3017 53.3395 17.3425 52.8714 17.1931 52.4472C17.0439 52.0228 16.7189 51.6834 16.3016 51.5158C11.5719 49.6162 8.51562 45.095 8.51562 39.9978C8.51562 34.8992 11.5714 30.3798 16.3006 28.4844C17.2297 27.982 17.4902 27.2436 17.082 26.2695C16.1666 24.638 15.6827 22.7811 15.6827 20.8998C15.6827 14.9427 20.5158 10.032 26.4645 9.93391C27.8438 9.99 29.1936 10.3139 30.4734 10.8973C31.6798 11.4511 32.7552 12.2075 33.6697 13.1456C33.9759 13.4597 34.3822 13.6175 34.7887 13.6175C35.1819 13.6175 35.5755 13.47 35.8792 13.1739C36.4972 12.5716 36.5097 11.5822 35.9073 10.9644C34.7236 9.75016 33.3339 8.77203 31.7733 8.05562C30.7014 7.56703 29.5917 7.22109 28.4575 7.01719C29.4183 4.71734 31.7003 3.125 34.2925 3.125C37.7761 3.125 40.6103 5.95875 40.6103 9.44172V28.5984H35.7459L31.6005 24.4534C32.0417 23.648 32.277 22.7405 32.277 21.7966C32.277 20.3159 31.7005 18.9239 30.6531 17.8769C28.4919 15.7159 24.975 15.7158 22.8136 17.8769C21.7666 18.9239 21.1898 20.3159 21.1898 21.7964C21.1898 23.2769 21.7664 24.6689 22.8136 25.7159C23.8942 26.7964 25.3138 27.3367 26.7333 27.3367C27.6489 27.3367 28.5639 27.1105 29.3888 26.6609L33.9937 31.2655C34.327 31.5637 34.6953 31.7164 35.0986 31.7231H40.6102V38.435H30.8184C30.1416 36.1391 28.0141 34.4577 25.4998 34.4577C22.4448 34.4577 19.9595 36.9428 19.9595 39.9975C19.9595 43.0545 22.4448 45.5417 25.4998 45.5417C28.0145 45.5417 30.1423 43.8584 30.8188 41.56H40.6102V48.2719H35.0986C35.0567 48.2719 35.0208 48.2741 34.9877 48.2772C34.6255 48.3028 34.2703 48.4528 33.9933 48.7298L29.3881 53.3381C27.285 52.192 24.5909 52.5062 22.8134 54.2834C21.7653 55.3316 21.1887 56.7247 21.1897 58.2064C21.1906 59.6859 21.768 61.0758 22.8134 62.1183C23.8944 63.1991 25.3141 63.7392 26.7337 63.7392C28.1528 63.7392 29.5719 63.1992 30.6514 62.1198C31.6984 61.0758 32.2758 59.6861 32.2767 58.2066C32.2773 57.2612 32.0419 56.3525 31.5998 55.5459L35.7459 51.397H40.6098V70.5581C40.6102 74.0413 37.7761 76.875 34.2925 76.875ZM29.152 21.7967C29.152 22.4425 28.9005 23.0497 28.4437 23.5064C27.5006 24.4494 25.9664 24.4494 25.0233 23.5064C24.5666 23.0497 24.315 22.4425 24.315 21.7967C24.315 21.1509 24.5666 20.5436 25.0233 20.087C25.9664 19.1442 27.5008 19.1442 28.4437 20.087C28.9005 20.5436 29.152 21.1508 29.152 21.7967ZM27.9195 39.9978C27.9195 41.3317 26.8341 42.417 25.4998 42.417C24.1681 42.417 23.0845 41.3317 23.0845 39.9978C23.0845 38.6664 24.1681 37.583 25.4998 37.583C26.8341 37.583 27.9195 38.6662 27.9195 39.9978ZM29.152 58.2045C29.1516 58.8484 28.9006 59.4531 28.4437 59.9086C27.5006 60.8514 25.9663 60.8516 25.0217 59.907C24.5664 59.4531 24.3153 58.8484 24.315 58.2045C24.3145 57.5584 24.5661 56.9508 25.0233 56.4936C25.9662 55.5509 27.5006 55.5508 28.4434 56.4934C28.4436 56.4936 28.4438 56.4938 28.4439 56.4941L28.4441 56.4942C28.9011 56.9514 29.1525 57.5588 29.152 58.2045ZM64.0028 58.227L60.4 61.8295H43.7352V57.1992H57.8091C58.672 57.1992 59.3716 56.4997 59.3716 55.6367V47.0089C59.3716 46.1459 58.672 45.4464 57.8091 45.4464C56.9461 45.4464 56.2466 46.1459 56.2466 47.0089V54.0742H43.7352V25.9258H56.2466V32.9733C56.2466 33.8363 56.9461 34.5358 57.8091 34.5358C58.672 34.5358 59.3716 33.8363 59.3716 32.9733V24.3633C59.3716 23.5003 58.672 22.8008 57.8091 22.8008H43.7352V18.1661H60.3995L64.0028 21.7725V58.227Z"/>
</mask>
<path d="M73.0469 34.1859C73.9098 34.1859 74.6094 33.4864 74.6094 32.6234C74.6094 31.7605 73.9098 31.0609 73.0469 31.0609H67.1278V26.807H73.0469C73.9098 26.807 74.6094 26.1075 74.6094 25.2445C74.6094 24.3816 73.9098 23.682 73.0469 23.682H67.1278V21.1256C67.1278 20.7114 66.9634 20.3142 66.6706 20.0212L62.1523 15.4992C61.8594 15.2059 61.4617 15.0411 61.047 15.0411H58.49V9.12734C58.49 8.26437 57.7905 7.56484 56.9275 7.56484C56.0645 7.56484 55.365 8.26437 55.365 9.12734V15.0411H51.1103V9.12734C51.1103 8.26437 50.4108 7.56484 49.5478 7.56484C48.6848 7.56484 47.9853 8.26437 47.9853 9.12734V15.0411H43.735V9.44172C43.735 4.23547 39.4991 0 34.2922 0C30.0322 0 26.3298 2.87937 25.2006 6.87953C21.9534 7.20953 18.9448 8.64516 16.6231 10.9956C14.0013 13.6503 12.5573 17.1677 12.5573 20.8997C12.5573 22.7517 12.923 24.5861 13.6241 26.2866C11.4308 27.452 9.54891 29.1281 8.12234 31.1995C6.33531 33.7945 5.39062 36.8369 5.39062 39.9978C5.39062 45.8167 8.57219 51.0359 13.6233 53.7134C12.923 55.4108 12.5577 57.2436 12.5577 59.0959C12.5577 62.828 14.0016 66.3453 16.6234 69C18.945 71.3505 21.9536 72.7861 25.2008 73.1161C26.3298 77.1189 30.0325 80 34.2925 80C39.4992 80 43.7353 75.7645 43.7353 70.5583V64.9545H47.9856V70.8727C47.9856 71.7356 48.6852 72.4352 49.5481 72.4352C50.4111 72.4352 51.1106 71.7356 51.1106 70.8727V64.9545H55.3653V70.8727C55.3653 71.7356 56.0648 72.4352 56.9278 72.4352C57.7908 72.4352 58.4903 71.7356 58.4903 70.8727V64.9545H61.0473C61.4617 64.9545 61.8591 64.79 62.1522 64.4969L66.6705 59.9792C66.9634 59.6862 67.1281 59.2887 67.1281 58.8744V56.3134H73.0469C73.9098 56.3134 74.6094 55.6139 74.6094 54.7509C74.6094 53.888 73.9098 53.1884 73.0469 53.1884H67.1278V48.9391H73.0469C73.9098 48.9391 74.6094 48.2395 74.6094 47.3766C74.6094 46.5136 73.9098 45.8141 73.0469 45.8141H67.1278V41.5603H73.0469C73.9098 41.5603 74.6094 40.8608 74.6094 39.9978C74.6094 39.1348 73.9098 38.4353 73.0469 38.4353H67.1278V34.1859H73.0469ZM34.2925 76.875C31.7005 76.875 29.4184 75.2811 28.4577 72.9794C29.5973 72.7753 30.7086 72.4286 31.7772 71.9383C33.3302 71.2253 34.7191 70.2495 35.9052 69.038C36.5087 68.4212 36.4983 67.432 35.8817 66.8283C35.265 66.2247 34.2759 66.2352 33.672 66.8517C32.7541 67.7892 31.678 68.545 30.4737 69.0978C29.2013 69.6816 27.8525 70.0052 26.4645 70.0614C20.5158 69.9633 15.6827 65.0527 15.6827 59.0955C15.6827 57.2131 16.1663 55.3584 17.0811 53.7316C17.3017 53.3395 17.3425 52.8714 17.1931 52.4472C17.0439 52.0228 16.7189 51.6834 16.3016 51.5158C11.5719 49.6162 8.51562 45.095 8.51562 39.9978C8.51562 34.8992 11.5714 30.3798 16.3006 28.4844C17.2297 27.982 17.4902 27.2436 17.082 26.2695C16.1666 24.638 15.6827 22.7811 15.6827 20.8998C15.6827 14.9427 20.5158 10.032 26.4645 9.93391C27.8438 9.99 29.1936 10.3139 30.4734 10.8973C31.6798 11.4511 32.7552 12.2075 33.6697 13.1456C33.9759 13.4597 34.3822 13.6175 34.7887 13.6175C35.1819 13.6175 35.5755 13.47 35.8792 13.1739C36.4972 12.5716 36.5097 11.5822 35.9073 10.9644C34.7236 9.75016 33.3339 8.77203 31.7733 8.05562C30.7014 7.56703 29.5917 7.22109 28.4575 7.01719C29.4183 4.71734 31.7003 3.125 34.2925 3.125C37.7761 3.125 40.6103 5.95875 40.6103 9.44172V28.5984H35.7459L31.6005 24.4534C32.0417 23.648 32.277 22.7405 32.277 21.7966C32.277 20.3159 31.7005 18.9239 30.6531 17.8769C28.4919 15.7159 24.975 15.7158 22.8136 17.8769C21.7666 18.9239 21.1898 20.3159 21.1898 21.7964C21.1898 23.2769 21.7664 24.6689 22.8136 25.7159C23.8942 26.7964 25.3138 27.3367 26.7333 27.3367C27.6489 27.3367 28.5639 27.1105 29.3888 26.6609L33.9937 31.2655C34.327 31.5637 34.6953 31.7164 35.0986 31.7231H40.6102V38.435H30.8184C30.1416 36.1391 28.0141 34.4577 25.4998 34.4577C22.4448 34.4577 19.9595 36.9428 19.9595 39.9975C19.9595 43.0545 22.4448 45.5417 25.4998 45.5417C28.0145 45.5417 30.1423 43.8584 30.8188 41.56H40.6102V48.2719H35.0986C35.0567 48.2719 35.0208 48.2741 34.9877 48.2772C34.6255 48.3028 34.2703 48.4528 33.9933 48.7298L29.3881 53.3381C27.285 52.192 24.5909 52.5062 22.8134 54.2834C21.7653 55.3316 21.1887 56.7247 21.1897 58.2064C21.1906 59.6859 21.768 61.0758 22.8134 62.1183C23.8944 63.1991 25.3141 63.7392 26.7337 63.7392C28.1528 63.7392 29.5719 63.1992 30.6514 62.1198C31.6984 61.0758 32.2758 59.6861 32.2767 58.2066C32.2773 57.2612 32.0419 56.3525 31.5998 55.5459L35.7459 51.397H40.6098V70.5581C40.6102 74.0413 37.7761 76.875 34.2925 76.875ZM29.152 21.7967C29.152 22.4425 28.9005 23.0497 28.4437 23.5064C27.5006 24.4494 25.9664 24.4494 25.0233 23.5064C24.5666 23.0497 24.315 22.4425 24.315 21.7967C24.315 21.1509 24.5666 20.5436 25.0233 20.087C25.9664 19.1442 27.5008 19.1442 28.4437 20.087C28.9005 20.5436 29.152 21.1508 29.152 21.7967ZM27.9195 39.9978C27.9195 41.3317 26.8341 42.417 25.4998 42.417C24.1681 42.417 23.0845 41.3317 23.0845 39.9978C23.0845 38.6664 24.1681 37.583 25.4998 37.583C26.8341 37.583 27.9195 38.6662 27.9195 39.9978ZM29.152 58.2045C29.1516 58.8484 28.9006 59.4531 28.4437 59.9086C27.5006 60.8514 25.9663 60.8516 25.0217 59.907C24.5664 59.4531 24.3153 58.8484 24.315 58.2045C24.3145 57.5584 24.5661 56.9508 25.0233 56.4936C25.9662 55.5509 27.5006 55.5508 28.4434 56.4934C28.4436 56.4936 28.4438 56.4938 28.4439 56.4941L28.4441 56.4942C28.9011 56.9514 29.1525 57.5588 29.152 58.2045ZM64.0028 58.227L60.4 61.8295H43.7352V57.1992H57.8091C58.672 57.1992 59.3716 56.4997 59.3716 55.6367V47.0089C59.3716 46.1459 58.672 45.4464 57.8091 45.4464C56.9461 45.4464 56.2466 46.1459 56.2466 47.0089V54.0742H43.7352V25.9258H56.2466V32.9733C56.2466 33.8363 56.9461 34.5358 57.8091 34.5358C58.672 34.5358 59.3716 33.8363 59.3716 32.9733V24.3633C59.3716 23.5003 58.672 22.8008 57.8091 22.8008H43.7352V18.1661H60.3995L64.0028 21.7725V58.227Z" fill="#FB610B"/>
<path d="M73.0469 34.1859C73.9098 34.1859 74.6094 33.4864 74.6094 32.6234C74.6094 31.7605 73.9098 31.0609 73.0469 31.0609H67.1278V26.807H73.0469C73.9098 26.807 74.6094 26.1075 74.6094 25.2445C74.6094 24.3816 73.9098 23.682 73.0469 23.682H67.1278V21.1256C67.1278 20.7114 66.9634 20.3142 66.6706 20.0212L62.1523 15.4992C61.8594 15.2059 61.4617 15.0411 61.047 15.0411H58.49V9.12734C58.49 8.26437 57.7905 7.56484 56.9275 7.56484C56.0645 7.56484 55.365 8.26437 55.365 9.12734V15.0411H51.1103V9.12734C51.1103 8.26437 50.4108 7.56484 49.5478 7.56484C48.6848 7.56484 47.9853 8.26437 47.9853 9.12734V15.0411H43.735V9.44172C43.735 4.23547 39.4991 0 34.2922 0C30.0322 0 26.3298 2.87937 25.2006 6.87953C21.9534 7.20953 18.9448 8.64516 16.6231 10.9956C14.0013 13.6503 12.5573 17.1677 12.5573 20.8997C12.5573 22.7517 12.923 24.5861 13.6241 26.2866C11.4308 27.452 9.54891 29.1281 8.12234 31.1995C6.33531 33.7945 5.39062 36.8369 5.39062 39.9978C5.39062 45.8167 8.57219 51.0359 13.6233 53.7134C12.923 55.4108 12.5577 57.2436 12.5577 59.0959C12.5577 62.828 14.0016 66.3453 16.6234 69C18.945 71.3505 21.9536 72.7861 25.2008 73.1161C26.3298 77.1189 30.0325 80 34.2925 80C39.4992 80 43.7353 75.7645 43.7353 70.5583V64.9545H47.9856V70.8727C47.9856 71.7356 48.6852 72.4352 49.5481 72.4352C50.4111 72.4352 51.1106 71.7356 51.1106 70.8727V64.9545H55.3653V70.8727C55.3653 71.7356 56.0648 72.4352 56.9278 72.4352C57.7908 72.4352 58.4903 71.7356 58.4903 70.8727V64.9545H61.0473C61.4617 64.9545 61.8591 64.79 62.1522 64.4969L66.6705 59.9792C66.9634 59.6862 67.1281 59.2887 67.1281 58.8744V56.3134H73.0469C73.9098 56.3134 74.6094 55.6139 74.6094 54.7509C74.6094 53.888 73.9098 53.1884 73.0469 53.1884H67.1278V48.9391H73.0469C73.9098 48.9391 74.6094 48.2395 74.6094 47.3766C74.6094 46.5136 73.9098 45.8141 73.0469 45.8141H67.1278V41.5603H73.0469C73.9098 41.5603 74.6094 40.8608 74.6094 39.9978C74.6094 39.1348 73.9098 38.4353 73.0469 38.4353H67.1278V34.1859H73.0469ZM34.2925 76.875C31.7005 76.875 29.4184 75.2811 28.4577 72.9794C29.5973 72.7753 30.7086 72.4286 31.7772 71.9383C33.3302 71.2253 34.7191 70.2495 35.9052 69.038C36.5087 68.4212 36.4983 67.432 35.8817 66.8283C35.265 66.2247 34.2759 66.2352 33.672 66.8517C32.7541 67.7892 31.678 68.545 30.4737 69.0978C29.2013 69.6816 27.8525 70.0052 26.4645 70.0614C20.5158 69.9633 15.6827 65.0527 15.6827 59.0955C15.6827 57.2131 16.1663 55.3584 17.0811 53.7316C17.3017 53.3395 17.3425 52.8714 17.1931 52.4472C17.0439 52.0228 16.7189 51.6834 16.3016 51.5158C11.5719 49.6162 8.51562 45.095 8.51562 39.9978C8.51562 34.8992 11.5714 30.3798 16.3006 28.4844C17.2297 27.982 17.4902 27.2436 17.082 26.2695C16.1666 24.638 15.6827 22.7811 15.6827 20.8998C15.6827 14.9427 20.5158 10.032 26.4645 9.93391C27.8438 9.99 29.1936 10.3139 30.4734 10.8973C31.6798 11.4511 32.7552 12.2075 33.6697 13.1456C33.9759 13.4597 34.3822 13.6175 34.7887 13.6175C35.1819 13.6175 35.5755 13.47 35.8792 13.1739C36.4972 12.5716 36.5097 11.5822 35.9073 10.9644C34.7236 9.75016 33.3339 8.77203 31.7733 8.05562C30.7014 7.56703 29.5917 7.22109 28.4575 7.01719C29.4183 4.71734 31.7003 3.125 34.2925 3.125C37.7761 3.125 40.6103 5.95875 40.6103 9.44172V28.5984H35.7459L31.6005 24.4534C32.0417 23.648 32.277 22.7405 32.277 21.7966C32.277 20.3159 31.7005 18.9239 30.6531 17.8769C28.4919 15.7159 24.975 15.7158 22.8136 17.8769C21.7666 18.9239 21.1898 20.3159 21.1898 21.7964C21.1898 23.2769 21.7664 24.6689 22.8136 25.7159C23.8942 26.7964 25.3138 27.3367 26.7333 27.3367C27.6489 27.3367 28.5639 27.1105 29.3888 26.6609L33.9937 31.2655C34.327 31.5637 34.6953 31.7164 35.0986 31.7231H40.6102V38.435H30.8184C30.1416 36.1391 28.0141 34.4577 25.4998 34.4577C22.4448 34.4577 19.9595 36.9428 19.9595 39.9975C19.9595 43.0545 22.4448 45.5417 25.4998 45.5417C28.0145 45.5417 30.1423 43.8584 30.8188 41.56H40.6102V48.2719H35.0986C35.0567 48.2719 35.0208 48.2741 34.9877 48.2772C34.6255 48.3028 34.2703 48.4528 33.9933 48.7298L29.3881 53.3381C27.285 52.192 24.5909 52.5062 22.8134 54.2834C21.7653 55.3316 21.1887 56.7247 21.1897 58.2064C21.1906 59.6859 21.768 61.0758 22.8134 62.1183C23.8944 63.1991 25.3141 63.7392 26.7337 63.7392C28.1528 63.7392 29.5719 63.1992 30.6514 62.1198C31.6984 61.0758 32.2758 59.6861 32.2767 58.2066C32.2773 57.2612 32.0419 56.3525 31.5998 55.5459L35.7459 51.397H40.6098V70.5581C40.6102 74.0413 37.7761 76.875 34.2925 76.875ZM29.152 21.7967C29.152 22.4425 28.9005 23.0497 28.4437 23.5064C27.5006 24.4494 25.9664 24.4494 25.0233 23.5064C24.5666 23.0497 24.315 22.4425 24.315 21.7967C24.315 21.1509 24.5666 20.5436 25.0233 20.087C25.9664 19.1442 27.5008 19.1442 28.4437 20.087C28.9005 20.5436 29.152 21.1508 29.152 21.7967ZM27.9195 39.9978C27.9195 41.3317 26.8341 42.417 25.4998 42.417C24.1681 42.417 23.0845 41.3317 23.0845 39.9978C23.0845 38.6664 24.1681 37.583 25.4998 37.583C26.8341 37.583 27.9195 38.6662 27.9195 39.9978ZM29.152 58.2045C29.1516 58.8484 28.9006 59.4531 28.4437 59.9086C27.5006 60.8514 25.9663 60.8516 25.0217 59.907C24.5664 59.4531 24.3153 58.8484 24.315 58.2045C24.3145 57.5584 24.5661 56.9508 25.0233 56.4936C25.9662 55.5509 27.5006 55.5508 28.4434 56.4934C28.4436 56.4936 28.4438 56.4938 28.4439 56.4941L28.4441 56.4942C28.9011 56.9514 29.1525 57.5588 29.152 58.2045ZM64.0028 58.227L60.4 61.8295H43.7352V57.1992H57.8091C58.672 57.1992 59.3716 56.4997 59.3716 55.6367V47.0089C59.3716 46.1459 58.672 45.4464 57.8091 45.4464C56.9461 45.4464 56.2466 46.1459 56.2466 47.0089V54.0742H43.7352V25.9258H56.2466V32.9733C56.2466 33.8363 56.9461 34.5358 57.8091 34.5358C58.672 34.5358 59.3716 33.8363 59.3716 32.9733V24.3633C59.3716 23.5003 58.672 22.8008 57.8091 22.8008H43.7352V18.1661H60.3995L64.0028 21.7725V58.227Z" stroke="#FB610B" stroke-width="0.8" mask="url(#path-1-outside-1_1:243)"/>
<path d="M57.8092 38.2312C56.8358 38.2312 56.0467 39.0202 56.0467 39.9937V39.998C56.0467 40.9718 56.8361 41.7583 57.8092 41.7583C58.783 41.7583 59.5717 40.9667 59.5717 39.9937C59.5717 39.0202 58.7825 38.2312 57.8092 38.2312Z" fill="#FB610B" stroke="#FB610B" stroke-width="0.4"/>
</g>
<defs>
<clipPath id="clip0_1:243">
<rect width="80" height="80" fill="white"/>
</clipPath>
</defs>
</svg>
