<svg width="80" height="80" viewBox="0 0 80 80" fill="none" xmlns="http://www.w3.org/2000/svg">
<path d="M69.84 31.5489L43.3305 5.03941C40.5901 2.29879 36.1304 2.29863 33.3896 5.03941C30.9259 7.503 30.7137 11.2603 32.533 13.9433L32.4962 14.1278C30.5849 23.6848 25.932 32.3792 19.0399 39.2711L6.88075 51.4303C4.13357 54.1776 4.1331 58.6239 6.88075 61.3712L13.5079 67.9984C16.255 70.7456 20.7015 70.7457 23.4488 67.9984L25.1057 66.3415L36.7035 77.9393C39.4507 80.6866 43.8969 80.6868 46.6443 77.9393C49.385 75.1987 49.385 70.7391 46.6443 67.9985L41.6738 63.0281L43.3307 61.3712C46.0779 58.6242 46.0782 54.1779 43.3307 51.4304L42.2047 50.3043C47.7436 46.4264 54.0341 43.7265 60.7517 42.3829L60.9386 42.3456C63.6813 44.1973 67.4299 43.8997 69.84 41.4895H69.8402C72.5805 38.749 72.5805 34.2897 69.84 31.5489ZM20.1353 64.6848C19.2196 65.6003 17.7371 65.6004 16.8215 64.6846L10.1943 58.0574C9.27856 57.1415 9.27856 55.6596 10.1943 54.7439L21.792 43.1461L31.7329 53.087C30.5982 54.2217 21.2979 63.522 20.1353 64.6848ZM43.3305 71.312C44.244 72.2254 44.244 73.712 43.3305 74.6255C42.4171 75.539 40.9304 75.539 40.0169 74.6255L28.4191 63.0278L31.7329 59.7142L43.3305 71.312ZM35.0465 56.4006C35.7509 55.6962 36.8052 54.6173 38.4693 53.196L40.0169 54.7439C40.9327 55.6596 40.9327 57.1415 40.0169 58.0574L38.3601 59.7143L35.0465 56.4006ZM35.146 49.8731L25.0057 39.7328C30.4399 33.458 34.3315 26.0509 36.4135 18.0041L56.8747 38.4653C48.8279 40.5472 41.421 44.4387 35.146 49.8731ZM66.526 38.1758C65.6102 39.0914 64.1281 39.0914 63.2124 38.1758L36.7032 11.6666C35.7874 10.7507 35.7874 9.26878 36.7032 8.353C37.619 7.43722 39.1012 7.43722 40.0169 8.353L66.526 34.862C67.4394 35.7756 67.4394 37.262 66.526 38.1758Z" fill="#FB610B"/>
<path d="M23.4487 51.4299C22.5338 50.5149 21.0501 50.5149 20.1351 51.4299L16.8215 54.7435C15.9065 55.6585 15.9065 57.1421 16.8215 58.0571C17.7363 58.9721 19.2203 58.9721 20.1351 58.0571L23.4487 54.7435C24.3637 53.8285 24.3637 52.3449 23.4487 51.4299Z" fill="#FB610B"/>
<path d="M54.0921 0C52.7981 0 51.749 1.04906 51.749 2.34312V7.02936C51.749 8.32342 52.7981 9.37248 54.0921 9.37248C55.3862 9.37248 56.4353 8.32342 56.4353 7.02936V2.34312C56.4353 1.04906 55.3862 0 54.0921 0Z" fill="#FB610B"/>
<path d="M72.8369 18.7446H68.1506C66.8566 18.7446 65.8075 19.7937 65.8075 21.0877C65.8075 22.3818 66.8566 23.4309 68.1506 23.4309H72.8369C74.1309 23.4309 75.18 22.3818 75.18 21.0877C75.18 19.7937 74.1308 18.7446 72.8369 18.7446Z" fill="#FB610B"/>
<path d="M69.8075 5.37228C68.8927 4.45729 67.409 4.45729 66.494 5.37228L61.8077 10.0585C60.8927 10.9735 60.8927 12.4571 61.8077 13.3721C62.7226 14.2871 64.2063 14.2873 65.1213 13.3721L69.8075 8.68587C70.7225 7.77087 70.7225 6.28744 69.8075 5.37228Z" fill="#FB610B"/>
</svg>
