<svg width="80" height="80" viewBox="0 0 80 80" fill="none" xmlns="http://www.w3.org/2000/svg">
<path d="M39.9976 9.37354C38.7032 9.37354 37.6538 10.4229 37.6538 11.7173C37.6538 13.0117 38.7032 14.061 39.9976 14.061C47.7529 14.061 54.0624 20.3695 54.0624 28.1235C54.0624 29.4179 55.1118 30.4673 56.4061 30.4673C57.7005 30.4673 58.7499 29.4179 58.7499 28.1235C58.7499 17.7848 50.3377 9.37354 39.9976 9.37354Z" fill="#FB610B"/>
<path d="M33.9586 0.629794C23.3695 2.84245 14.7836 11.3462 12.5243 22.001C10.6167 30.9982 12.9675 40.031 18.9739 46.7834C21.91 50.0839 23.5937 54.4406 23.5937 58.7485V63.436C23.5937 66.5548 25.6354 69.2043 28.452 70.122C29.3782 75.5946 34.1282 79.9984 40 79.9984C45.8701 79.9984 50.6214 75.596 51.5479 70.122C54.3645 69.2043 56.4062 66.5548 56.4062 63.4359V58.7484C56.4062 54.432 58.0956 50.1276 61.1628 46.6282C65.6525 41.5064 68.125 34.9345 68.125 28.1235C68.125 10.379 51.8829 -3.11489 33.9586 0.629794ZM40 75.311C36.9872 75.311 34.3456 73.2379 33.3701 70.4517H46.6297C45.6543 73.2379 43.0128 75.311 40 75.311ZM51.7187 63.436C51.7187 64.7284 50.6673 65.7798 49.375 65.7798H30.625C29.3326 65.7798 28.2812 64.7284 28.2812 63.436V61.0923H51.7187V63.436ZM57.6378 43.5387C54.369 47.2679 52.3579 51.7648 51.8476 56.4048H28.1528C27.6431 51.7623 25.6372 47.2212 22.4765 43.6679C17.4706 38.0404 15.5145 30.4974 17.11 22.9734C18.9723 14.1899 26.1286 7.05479 34.9175 5.21839C49.9212 2.08292 63.4375 13.3504 63.4375 28.1235C63.4375 33.7973 61.3778 39.2718 57.6378 43.5387Z" fill="#FB610B"/>
<path d="M7.03125 28.1235H2.34375C1.04937 28.1235 0 29.1729 0 30.4673C0 31.7617 1.04937 32.811 2.34375 32.811H7.03125C8.32563 32.811 9.375 31.7617 9.375 30.4673C9.375 29.1729 8.32563 28.1235 7.03125 28.1235Z" fill="#FB610B"/>
<path d="M8.00207 16.4048L4.68754 13.0903C3.77238 12.175 2.28832 12.175 1.37301 13.0903C0.457695 14.0056 0.457695 15.4895 1.37301 16.4048L4.68754 19.7194C5.6027 20.6347 7.08676 20.6348 8.00207 19.7194C8.91738 18.804 8.91738 17.3201 8.00207 16.4048Z" fill="#FB610B"/>
<path d="M8.00207 41.2153C7.08676 40.3 5.6027 40.3 4.68754 41.2153L1.37301 44.5298C0.457695 45.4451 0.457695 46.929 1.37301 47.8443C2.28816 48.7597 3.77223 48.7598 4.68754 47.8443L8.00207 44.5298C8.91738 43.6145 8.91738 42.1306 8.00207 41.2153Z" fill="#FB610B"/>
<path d="M77.6562 28.1235H72.9688C71.6744 28.1235 70.625 29.1729 70.625 30.4673C70.625 31.7617 71.6744 32.811 72.9688 32.811H77.6562C78.9506 32.811 80 31.7617 80 30.4673C80 29.1729 78.9506 28.1235 77.6562 28.1235Z" fill="#FB610B"/>
<path d="M78.6271 13.0903C77.7119 12.175 76.2279 12.175 75.3125 13.0903L71.998 16.4048C71.0827 17.3201 71.0827 18.804 71.998 19.7194C72.9132 20.6345 74.3972 20.6347 75.3125 19.7194L78.6271 16.4048C79.5424 15.4895 79.5424 14.0056 78.6271 13.0903Z" fill="#FB610B"/>
<path d="M78.6271 44.5298L75.3125 41.2153C74.3974 40.3 72.9133 40.3 71.998 41.2153C71.0827 42.1306 71.0827 43.6145 71.998 44.5298L75.3125 47.8444C76.2277 48.7595 77.7118 48.7597 78.6271 47.8444C79.5424 46.929 79.5424 45.4451 78.6271 44.5298Z" fill="#FB610B"/>
</svg>
