<svg width="80" height="80" viewBox="0 0 80 80" fill="none" xmlns="http://www.w3.org/2000/svg">
<path d="M72.9688 0.15625H7.03125C3.15422 0.15625 0 3.31047 0 7.1875V72.8125C0 76.6895 3.15422 79.8438 7.03125 79.8438H72.9688C76.8458 79.8438 80 76.6895 80 72.8125V7.1875C80 3.31047 76.8458 0.15625 72.9688 0.15625ZM7.03125 4.84375H72.9688C74.2611 4.84375 75.3125 5.89516 75.3125 7.1875V18.9062H4.6875V7.1875C4.6875 5.89516 5.73891 4.84375 7.03125 4.84375ZM72.9688 75.1562H7.03125C5.73891 75.1562 4.6875 74.1048 4.6875 72.8125V23.5938H75.3125V72.8125C75.3125 74.1048 74.2611 75.1562 72.9688 75.1562Z" fill="#FB610B"/>
<path d="M47.9545 30.8146C46.7649 30.3048 45.3869 30.8558 44.877 32.0455L30.8145 64.858C30.3045 66.0477 30.8558 67.4257 32.0455 67.9355C33.2356 68.4455 34.6133 67.894 35.123 66.7046L49.1855 33.8921C49.6955 32.7022 49.1442 31.3244 47.9545 30.8146Z" fill="#FB610B"/>
<path d="M27.7677 38.5354C26.9589 37.5246 25.4838 37.3609 24.4734 38.1695L12.7547 47.5445C11.583 48.4815 11.5822 50.267 12.7547 51.2048L24.4734 60.5798C25.4842 61.3885 26.9594 61.2245 27.7677 60.2138C28.5763 59.2031 28.4125 57.7281 27.4016 56.9196L17.9706 49.3746L27.4016 41.8298C28.4125 41.0212 28.5763 39.5463 27.7677 38.5354Z" fill="#FB610B"/>
<path d="M67.2453 47.5445L55.5265 38.1695C54.5158 37.3608 53.0408 37.5247 52.2323 38.5355C51.4237 39.5463 51.5875 41.0213 52.5984 41.8297L62.0294 49.3747L52.5984 56.9195C51.5875 57.7281 51.4237 59.203 52.2323 60.2137C53.042 61.2256 54.5172 61.3875 55.5265 60.5797L67.2453 51.2047C68.417 50.2677 68.4178 48.4823 67.2453 47.5445Z" fill="#FB610B"/>
<path d="M11.875 14.2188C13.1694 14.2188 14.2188 13.1694 14.2188 11.875C14.2188 10.5806 13.1694 9.53125 11.875 9.53125C10.5806 9.53125 9.53125 10.5806 9.53125 11.875C9.53125 13.1694 10.5806 14.2188 11.875 14.2188Z" fill="#FB610B"/>
<path d="M21.25 14.2188C22.5444 14.2188 23.5938 13.1694 23.5938 11.875C23.5938 10.5806 22.5444 9.53125 21.25 9.53125C19.9556 9.53125 18.9062 10.5806 18.9062 11.875C18.9062 13.1694 19.9556 14.2188 21.25 14.2188Z" fill="#FB610B"/>
<path d="M30.625 14.2188C31.9194 14.2188 32.9688 13.1694 32.9688 11.875C32.9688 10.5806 31.9194 9.53125 30.625 9.53125C29.3306 9.53125 28.2812 10.5806 28.2812 11.875C28.2812 13.1694 29.3306 14.2188 30.625 14.2188Z" fill="#FB610B"/>
<path d="M54.0625 14.2188H68.125C69.4194 14.2188 70.4688 13.1694 70.4688 11.875C70.4688 10.5806 69.4194 9.53125 68.125 9.53125H54.0625C52.7681 9.53125 51.7188 10.5806 51.7188 11.875C51.7188 13.1694 52.7681 14.2188 54.0625 14.2188Z" fill="#FB610B"/>
</svg>
