<svg width="80" height="80" viewBox="0 0 80 80" fill="none" xmlns="http://www.w3.org/2000/svg">
<g clip-path="url(#clip0_1:1685)">
<path d="M71.4062 51.8319C67.4802 51.8319 64.1631 54.4792 63.14 58.0819H54.8438V48.9327H63.3145C72.515 48.9327 80 41.4477 80 32.2472C80 24.8705 75.1075 18.3902 68.1619 16.2796C66.0623 7.87268 58.4736 1.84314 49.6847 1.84314C46.2777 1.84314 43.0139 2.72174 40.1336 4.40033C37.0831 1.61064 33.0833 0.043457 28.8806 0.043457C19.8661 0.043457 12.4983 7.22955 12.2042 16.1736C5.06969 18.1678 0 24.7002 0 32.2472C0 41.4477 7.485 48.9327 16.6855 48.9327H25.1562V58.0819H16.86C15.837 54.4792 12.5198 51.8319 8.59375 51.8319C3.85516 51.8319 0 55.687 0 60.4256C0 65.1642 3.85516 69.0194 8.59375 69.0194C12.5198 69.0194 15.8369 66.372 16.86 62.7694H27.5C28.7944 62.7694 29.8438 61.72 29.8438 60.4256V48.9327H37.6562V63.0969C34.0536 64.1199 31.4062 67.437 31.4062 71.3631C31.4062 76.1017 35.2614 79.9569 40 79.9569C44.7386 79.9569 48.5938 76.1017 48.5938 71.3631C48.5938 67.437 45.9464 64.12 42.3438 63.0969V48.9327H50.1562V60.4256C50.1562 61.72 51.2056 62.7694 52.5 62.7694H63.14C64.163 66.372 67.4802 69.0194 71.4062 69.0194C76.1448 69.0194 80 65.1642 80 60.4256C80 55.687 76.1448 51.8319 71.4062 51.8319ZM8.59375 64.3319C6.43984 64.3319 4.6875 62.5795 4.6875 60.4256C4.6875 58.2717 6.43984 56.5194 8.59375 56.5194C10.7477 56.5194 12.5 58.2717 12.5 60.4256C12.5 62.5795 10.7477 64.3319 8.59375 64.3319ZM43.9062 71.3631C43.9062 73.5171 42.1539 75.2694 40 75.2694C37.8461 75.2694 36.0938 73.5171 36.0938 71.3631C36.0938 69.2092 37.8461 67.4569 40 67.4569C42.1539 67.4569 43.9062 69.2092 43.9062 71.3631ZM16.6855 44.2452C10.0698 44.2452 4.6875 38.863 4.6875 32.2472C4.6875 26.3342 9.09484 21.2306 14.9391 20.376C16.1723 20.1956 17.0486 19.0816 16.9336 17.8406C16.8997 17.4746 16.8825 17.1005 16.8825 16.7288C16.8825 10.1133 22.2648 4.73111 28.8805 4.73111C32.4102 4.73111 35.7388 6.26549 38.0125 8.9408C38.8108 9.88002 40.2 10.0403 41.1914 9.30783C43.6495 7.49096 46.5864 6.53064 49.6845 6.53064C56.8139 6.53064 62.7428 11.7617 63.8511 18.5666C64.0078 19.5288 64.7439 20.2935 65.6994 20.4869C71.2695 21.6146 75.3123 26.5603 75.3123 32.2472C75.3123 38.863 69.93 44.2452 63.3144 44.2452H16.6855ZM71.4062 64.3319C69.2523 64.3319 67.5 62.5795 67.5 60.4256C67.5 58.2717 69.2523 56.5194 71.4062 56.5194C73.5602 56.5194 75.3125 58.2717 75.3125 60.4256C75.3125 62.5795 73.5602 64.3319 71.4062 64.3319Z" fill="#FB610B"/>
</g>
<defs>
<clipPath id="clip0_1:1685">
<rect width="80" height="80" fill="white"/>
</clipPath>
</defs>
</svg>
