<svg width="40" height="40" viewBox="0 0 40 40" fill="none" xmlns="http://www.w3.org/2000/svg">
<rect width="40" height="40" rx="4" fill="#FF660F"/>
<path d="M29.6111 25.9032L27.3939 24.4249L25.4229 23.1112C25.0425 22.8581 24.5313 22.9411 24.2505 23.3015L23.0308 24.8694C22.7688 25.2097 22.2976 25.3074 21.9219 25.0994C21.0943 24.6391 20.1157 24.2057 17.9564 22.0436C15.7971 19.8816 15.3609 18.9057 14.9006 18.0781C14.6926 17.7024 14.7903 17.2312 15.1306 16.9692L16.6985 15.7496C17.0589 15.4688 17.1419 14.9576 16.8888 14.5772L15.6154 12.6668L14.0968 10.3889C13.8383 10.0012 13.3209 9.88477 12.9213 10.1244L11.1699 11.1751C10.6966 11.454 10.3486 11.9043 10.1982 12.4327C9.71924 14.1789 9.62268 18.0309 15.7961 24.2042C21.9694 30.3776 25.8211 30.2807 27.5673 29.8018C28.0957 29.6513 28.546 29.3034 28.8249 28.83L29.8756 27.0787C30.1152 26.6791 29.9988 26.1617 29.6111 25.9032Z" fill="white"/>
<path d="M21.38 13.1037C24.6159 13.1073 27.2383 15.7297 27.2419 18.9657C27.2419 19.1561 27.3962 19.3105 27.5867 19.3105C27.7771 19.3105 27.9315 19.1562 27.9315 18.9657C27.9275 15.349 24.9966 12.418 21.38 12.4141C21.1896 12.4141 21.0352 12.5684 21.0352 12.7589C21.0351 12.9493 21.1895 13.1037 21.38 13.1037Z" fill="white"/>
<path d="M21.379 15.1739C23.4729 15.1763 25.1696 16.8727 25.1721 18.966C25.1721 19.1563 25.3264 19.3107 25.5169 19.3107C25.7073 19.3107 25.8618 19.1564 25.8618 18.966C25.8589 16.492 23.8536 14.4872 21.379 14.4844C21.1886 14.4844 21.0342 14.6387 21.0342 14.8291C21.0342 15.0195 21.1886 15.1739 21.379 15.1739Z" fill="white"/>
<path d="M21.38 17.2401C22.3317 17.2412 23.103 18.0121 23.1041 18.9634C23.1041 19.1537 23.2585 19.308 23.4489 19.308C23.6394 19.308 23.7938 19.1537 23.7938 18.9634C23.7923 17.6316 22.7125 16.5523 21.38 16.5508C21.1896 16.5508 21.0352 16.7051 21.0352 16.8955C21.0351 17.0858 21.1895 17.2401 21.38 17.2401Z" fill="white"/>
</svg>
