<svg width="24" height="24" viewBox="0 0 24 24" fill="none" xmlns="http://www.w3.org/2000/svg">
<path fill-rule="evenodd" clip-rule="evenodd" d="M16.6817 14.9776L19.2217 15.2676C20.2317 15.3876 20.9917 16.2376 20.9817 17.2476V18.9776C20.9817 20.1076 20.0417 21.0476 18.9117 20.9776C10.3817 20.4476 3.55174 13.6276 3.02174 5.08758C2.95174 3.95758 3.89174 3.01758 5.02174 3.01758H6.75174C7.77174 3.01758 8.62174 3.77758 8.74174 4.78758L9.03174 7.30758C9.10174 7.91758 8.89174 8.51758 8.46174 8.94758L6.61174 10.7976C8.05174 13.6376 10.3717 15.9476 13.2017 17.3876L15.0417 15.5476C15.4717 15.1176 16.0717 14.9076 16.6817 14.9776ZM12.8717 5.05758C16.0517 5.45758 18.5417 7.94758 18.9417 11.1276C19.0017 11.6376 19.4317 12.0076 19.9317 12.0076C19.9717 12.0076 20.0117 12.0076 20.0517 11.9976C20.6017 11.9276 20.9917 11.4276 20.9217 10.8776C20.4117 6.78758 17.2017 3.57758 13.1117 3.06758C12.5617 3.00758 12.0617 3.39758 12.0017 3.94758C11.9317 4.49758 12.3217 4.99758 12.8717 5.05758ZM13.2517 7.16758C12.7217 7.02758 12.1717 7.34758 12.0317 7.88758C11.8917 8.42758 12.2117 8.96758 12.7517 9.10758C13.8017 9.37758 14.6217 10.1976 14.9017 11.2576C15.0217 11.7076 15.4217 12.0076 15.8717 12.0076C15.9517 12.0076 16.0417 11.9976 16.1217 11.9776C16.6517 11.8376 16.9717 11.2876 16.8417 10.7576C16.3717 8.98758 15.0017 7.61758 13.2517 7.16758Z" fill="#6D747A"/>
</svg>
