<svg width="20" height="20" viewBox="0 0 20 20" fill="none" xmlns="http://www.w3.org/2000/svg">
<path d="M19.6111 15.9032L17.3939 14.4249L15.4229 13.1112C15.0425 12.8581 14.5313 12.9411 14.2505 13.3015L13.0308 14.8694C12.7688 15.2097 12.2976 15.3074 11.9219 15.0994C11.0943 14.6391 10.1157 14.2057 7.95638 12.0436C5.79711 9.88156 5.3609 8.90571 4.90056 8.07815C4.69255 7.70245 4.79032 7.23116 5.13055 6.96921L6.69847 5.74958C7.05889 5.4688 7.1419 4.9576 6.88882 4.57717L5.61539 2.66684L4.09678 0.388902C3.8383 0.00117267 3.32088 -0.115232 2.92128 0.124413L1.16989 1.1751C0.696575 1.45397 0.348649 1.90427 0.198182 2.43267C-0.280758 4.17886 -0.37732 8.03088 5.79605 14.2042C11.9694 20.3776 15.8211 20.2807 17.5673 19.8018C18.0957 19.6513 18.546 19.3034 18.8249 18.83L19.8756 17.0787C20.1152 16.6791 19.9988 16.1617 19.6111 15.9032Z" fill="white"/>
<path d="M11.38 3.1037C14.6159 3.1073 17.2383 5.72969 17.2419 8.9657C17.2419 9.15613 17.3962 9.31054 17.5867 9.31054C17.7771 9.31054 17.9315 9.15617 17.9315 8.9657C17.9275 5.34899 14.9966 2.41805 11.38 2.41406C11.1896 2.41406 11.0352 2.56844 11.0352 2.7589C11.0351 2.94929 11.1895 3.1037 11.38 3.1037Z" fill="white"/>
<path d="M11.379 5.17388C13.4729 5.17634 15.1696 6.87269 15.1721 8.96596C15.1721 9.15634 15.3264 9.31072 15.5169 9.31072C15.7073 9.31072 15.8618 9.15638 15.8618 8.96596C15.8589 6.49205 13.8536 4.48723 11.379 4.48438C11.1886 4.48438 11.0342 4.63871 11.0342 4.82913C11.0342 5.01955 11.1886 5.17388 11.379 5.17388Z" fill="white"/>
<path d="M11.38 7.24008C12.3317 7.24121 13.103 8.01207 13.1041 8.96335C13.1041 9.15368 13.2585 9.30802 13.4489 9.30802C13.6394 9.30802 13.7938 9.15372 13.7938 8.96335C13.7923 7.63156 12.7125 6.5523 11.38 6.55078C11.1896 6.55078 11.0352 6.70508 11.0352 6.89545C11.0351 7.08578 11.1895 7.24008 11.38 7.24008Z" fill="white"/>
</svg>
