<svg width="48" height="48" viewBox="0 0 48 48" fill="none" xmlns="http://www.w3.org/2000/svg">
<path d="M38.0625 43.6875H33.4504L32.5129 40.875H15.4871L14.5496 43.6875H9.9375C9.1604 43.6875 8.53125 44.3167 8.53125 45.0938C8.53125 45.8708 9.1604 46.5 9.9375 46.5H38.0625C38.8396 46.5 39.4688 45.8708 39.4688 45.0938C39.4688 44.3167 38.8396 43.6875 38.0625 43.6875Z" fill="white"/>
<path d="M38.0625 9.9375C37.2865 9.9375 36.6562 10.5677 36.6562 11.3438C36.6562 12.1198 37.2865 12.75 38.0625 12.75C38.8385 12.75 39.4688 12.1198 39.4688 11.3438C39.4688 10.5677 38.8385 9.9375 38.0625 9.9375Z" fill="white"/>
<path d="M43.6875 1.5H4.21875C1.89258 1.5 0 3.39258 0 5.71875V29.625H8.53125V25.4062C8.53125 24.6292 9.1604 24 9.9375 24H12.1102C12.2556 23.5909 12.4219 23.1896 12.6101 22.7955L11.0731 21.2574C10.5238 20.7081 10.5238 19.8182 11.0731 19.2689L15.0502 15.2919C15.5995 14.7426 16.4894 14.7426 17.0387 15.2919L18.5768 16.83C18.9708 16.6417 19.3718 16.4744 19.7812 16.3286V14.1562C19.7812 13.3792 20.4104 12.75 21.1875 12.75H26.8125C27.5896 12.75 28.2188 13.3792 28.2188 14.1562V16.329C28.6278 16.4744 29.0292 16.6421 29.4232 16.83L30.9613 15.2919C31.5106 14.7429 32.4005 14.7429 32.9498 15.2919L36.9269 19.2689C37.4762 19.8182 37.4762 20.7085 36.9269 21.2574L35.3899 22.7955C35.5781 23.1899 35.7444 23.5909 35.8898 24H38.0625C38.8396 24 39.4688 24.6292 39.4688 25.4062V29.625H48V5.71875C48 3.39258 46.0137 1.5 43.6875 1.5ZM38.0625 15.5625C35.7363 15.5625 33.8438 13.6699 33.8438 11.3438C33.8438 9.01758 35.7363 7.125 38.0625 7.125C40.3887 7.125 42.2812 9.01758 42.2812 11.3438C42.2812 13.6699 40.3887 15.5625 38.0625 15.5625Z" fill="white"/>
<path d="M19.7812 28.2188C19.7812 28.7047 19.8933 29.1735 20.0541 29.625H27.9459C28.1067 29.1735 28.2188 28.7047 28.2188 28.2188C28.2188 25.8926 26.3262 24 24 24C21.6735 24 19.7812 25.8926 19.7812 28.2188Z" fill="white"/>
<path d="M14.5104 25.7578C14.35 26.3785 13.7897 26.8125 13.1481 26.8125H11.3438V29.625H17.1537C17.0592 29.1617 16.9688 28.6963 16.9688 28.2188C16.9688 24.342 20.1233 21.1875 24 21.1875C27.8767 21.1875 31.0312 24.342 31.0312 28.2188C31.0312 28.6963 30.9408 29.1617 30.8463 29.625H36.6562V26.8125H34.8519C34.2103 26.8125 33.65 26.3785 33.4896 25.7578C33.2655 24.8859 32.9154 24.0425 32.4485 23.2515C32.1229 22.6996 32.2123 21.9965 32.6653 21.5431L33.9441 20.2632L31.9556 18.2747L30.6757 19.5546C30.2223 20.0094 29.5177 20.0999 28.9658 19.7703C28.1763 19.3048 27.3344 18.9532 26.4609 18.7291C25.8402 18.5687 25.4062 18.0084 25.4062 17.3668V15.5625H22.5938V17.3668C22.5938 18.0084 22.1598 18.5687 21.5391 18.7291C20.6656 18.9532 19.8237 19.3048 19.0342 19.7703C18.4849 20.0999 17.7788 20.0094 17.3243 19.5546L16.0444 18.2747L14.0559 20.2632L15.3347 21.5431C15.7877 21.9965 15.8771 22.6996 15.5515 23.2515C15.0846 24.0425 14.7345 24.8859 14.5104 25.7578Z" fill="white"/>
<path d="M0 33.8438C0 36.1699 1.89258 38.0625 4.21875 38.0625H43.6875C46.0137 38.0625 48 36.1699 48 33.8438V32.4375H0V33.8438Z" fill="white"/>
</svg>
