<svg width="20" height="20" viewBox="0 0 20 20" fill="none" xmlns="http://www.w3.org/2000/svg">
<path d="M10.5859 0C9.29332 0 8.20312 1.0902 8.20312 2.38281C8.20312 3.67543 9.29332 4.76562 10.5859 4.76562C11.8785 4.76562 12.9297 3.67543 12.9297 2.38281C12.9297 1.0902 11.8785 0 10.5859 0Z" fill="white"/>
<path d="M13.1872 4.76562C12.5432 5.47965 11.6209 5.9375 10.5859 5.9375C9.55093 5.9375 8.58957 5.47965 7.94562 4.76562C7.38344 5.38902 7.03125 6.2057 7.03125 7.10938V7.69531C7.03125 8.01918 7.29332 8.28125 7.61719 8.28125H13.5156C13.8395 8.28125 14.1016 8.01918 14.1016 7.69531V7.10938C14.1016 6.2057 13.7494 5.38902 13.1872 4.76562Z" fill="white"/>
<path d="M5.661 17.9848L2.67502 11.9982C2.3867 11.4202 1.68498 11.1844 1.10619 11.4712L0.325765 11.8578C0.0351791 12.0019 -0.0830631 12.355 0.061976 12.6451L3.5776 19.6764C3.72217 19.9663 4.07385 20.0817 4.36209 19.9396L5.13248 19.5579C5.71354 19.2701 5.95037 18.565 5.661 17.9848Z" fill="white"/>
<path d="M19.5196 9.67564C19.0391 9.32408 18.3711 9.39439 17.9727 9.82799L14.7696 13.7655C14.5469 13.9999 14.1251 14.1405 13.9024 14.1405H11.1719C10.8437 14.1405 10.586 13.8827 10.586 13.5546C10.586 13.2264 10.8437 12.9686 11.1719 12.9686C11.9567 12.9686 12.8255 12.9686 13.5156 12.9686C14.1602 12.9686 14.6875 12.4413 14.6875 11.7967C14.6875 11.1522 14.1602 10.6249 13.5156 10.6249C10.7638 10.6249 13.3887 10.6249 10.4453 10.6249C10.1533 10.6249 10.0077 10.4397 9.77736 10.2381C8.87076 9.42228 7.51373 9.02924 6.1399 9.34767C5.37709 9.52447 4.86268 9.83264 4.34096 10.2458L4.32357 10.2317L3.47607 10.9776L6.8067 17.6561H7.79295H13.5156C14.6172 17.6561 15.6719 17.1288 16.3282 16.2499L19.7656 11.328C20.1524 10.8123 20.0469 10.0624 19.5196 9.67564Z" fill="white"/>
</svg>
