<svg width="48" height="48" viewBox="0 0 48 48" fill="none" xmlns="http://www.w3.org/2000/svg">
<g clip-path="url(#clip0_1:100)">
<path d="M47.8432 18.3812C47.4581 17.0816 46.3435 16.131 44.9994 15.9557L32.2427 14.1935L27.1946 2.13108C26.4576 0.365477 24.4287 -0.468262 22.6631 0.268755C21.8214 0.620188 21.1522 1.28931 20.8009 2.13098L15.7528 14.1934L2.99608 15.9556C1.09538 16.2203 -0.230904 17.9755 0.0337509 19.8761C0.147447 20.6929 0.547895 21.4426 1.16358 21.9912L10.7748 30.5619L8.80011 44.0112C8.58618 45.3768 9.21342 46.7375 10.3909 47.4617C11.5517 48.2041 13.0449 48.1763 14.1774 47.3914L23.9977 40.7131L33.8181 47.3983C35.4027 48.4737 37.5592 48.061 38.6348 46.4764C39.1236 45.7563 39.3237 44.8788 39.1955 44.018L37.2208 30.5637L46.832 21.993C47.8526 21.0942 48.2488 19.6792 47.8432 18.3812Z" fill="white"/>
</g>
<defs>
<clipPath id="clip0_1:100">
<rect width="48" height="48" fill="white"/>
</clipPath>
</defs>
</svg>
