<svg width="48" height="48" viewBox="0 0 48 48" fill="none" xmlns="http://www.w3.org/2000/svg">
<path d="M15 6H33V9H39V6C39 2.6909 36.3091 0 33 0H15C11.6909 0 9 2.6909 9 6V9H15V6Z" fill="white"/>
<path d="M33 39H15V36H9V42C9 45.3091 11.6909 48 15 48H33C36.3091 48 39 45.3091 39 42V36H33V39Z" fill="white"/>
<path d="M35.2411 33.4937L44.9999 22.5001L35.2411 11.5063L30.7587 15.4937L36.9871 22.5001L30.7587 29.5064L35.2411 33.4937Z" fill="white"/>
<path d="M17.2412 29.5064L11.0128 22.5001L17.2412 15.4937L12.7588 11.5063L3 22.5001L12.7588 33.4937L17.2412 29.5064Z" fill="white"/>
</svg>
