<svg width="24" height="24" viewBox="0 0 24 24" fill="none" xmlns="http://www.w3.org/2000/svg">
<path d="M20 7L20.94 4.94L23 4L20.94 3.06L20 1L19.06 3.06L17 4L19.06 4.94L20 7Z" fill="#FB610B"/>
<path d="M8.5 7L9.44 4.94L11.5 4L9.44 3.06L8.5 1L7.56 3.06L5.5 4L7.56 4.94L8.5 7Z" fill="#FB610B"/>
<path d="M20 12.5L19.06 14.56L17 15.5L19.06 16.44L20 18.5L20.94 16.44L23 15.5L20.94 14.56L20 12.5Z" fill="#FB610B"/>
<path d="M17.7096 9.12L14.8796 6.29C14.6796 6.1 14.4296 6 14.1696 6C13.9096 6 13.6596 6.1 13.4596 6.29L2.28957 17.46C1.89957 17.85 1.89957 18.48 2.28957 18.87L5.11957 21.7C5.31957 21.9 5.56957 22 5.82957 22C6.08957 22 6.33957 21.9 6.53957 21.71L17.7096 10.54C18.0996 10.15 18.0996 9.51 17.7096 9.12ZM14.1696 8.42L15.5796 9.83L14.4096 11L12.9996 9.59L14.1696 8.42ZM5.82957 19.59L4.41957 18.18L11.5896 11L12.9996 12.41L5.82957 19.59Z" fill="#FB610B"/>
</svg>
