<svg width="24" height="24" viewBox="0 0 24 24" fill="none" xmlns="http://www.w3.org/2000/svg">
<path d="M15.4921 12.5C15.4921 14.5 12.9921 16 12.9921 17.5H10.9921C10.9921 16 8.49206 14.5 8.49206 12.5C8.49206 11.5717 8.86081 10.6815 9.51719 10.0251C10.1736 9.36875 11.0638 9 11.9921 9C12.9203 9 13.8106 9.36875 14.4669 10.0251C15.1233 10.6815 15.4921 11.5717 15.4921 12.5ZM12.9921 18.5H10.9921V20H12.9921V18.5ZM18.9921 12C18.9948 13.6121 18.4361 15.1749 17.4121 16.42L18.8321 17.84C20.3794 16.0253 21.1432 13.6706 20.9557 11.2931C20.7682 8.91562 19.6447 6.70976 17.8321 5.16L16.4121 6.58C17.2171 7.23556 17.8663 8.06199 18.3125 8.99941C18.7587 9.93684 18.9909 10.9618 18.9921 12ZM15.9921 4L11.9921 0V3C10.2734 3.00152 8.59116 3.49509 7.14413 4.42236C5.69711 5.34964 4.54585 6.67184 3.82644 8.23267C3.10703 9.79349 2.84956 11.5277 3.08447 13.2302C3.31939 14.9327 4.03685 16.5323 5.15206 17.84L6.57206 16.42C5.54801 15.1749 4.98937 13.6121 4.99206 12C4.99206 10.1435 5.72956 8.36301 7.04231 7.05025C8.35507 5.7375 10.1355 5 11.9921 5V8L15.9921 4Z" fill="white"/>
</svg>
