<svg width="24" height="24" viewBox="0 0 24 24" fill="none" xmlns="http://www.w3.org/2000/svg">
<path fill-rule="evenodd" clip-rule="evenodd" d="M20 3H4C3.46957 3 2.96086 3.21071 2.58579 3.58579C2.21071 3.96086 2 4.46957 2 5V19C2 19.5304 2.21071 20.0391 2.58579 20.4142C2.96086 20.7893 3.46957 21 4 21H20C20.5304 21 21.0391 20.7893 21.4142 20.4142C21.7893 20.0391 22 19.5304 22 19V5C22 4.46957 21.7893 3.96086 21.4142 3.58579C21.0391 3.21071 20.5304 3 20 3ZM20 19H4V5H20V19Z" fill="white"/>
<path fill-rule="evenodd" clip-rule="evenodd" d="M19.41 10.42L17.99 9L14.82 12.17L13.41 10.75L12 12.16L14.82 15L19.41 10.42Z" fill="white"/>
<path d="M10 7H5V9H10V7Z" fill="white"/>
<path d="M10 11H5V13H10V11Z" fill="white"/>
<path d="M10 15H5V17H10V15Z" fill="white"/>
</svg>
