<svg width="24" height="24" viewBox="0 0 24 24" fill="none" xmlns="http://www.w3.org/2000/svg">
<path d="M12 19.8C12.996 19.8 13.8 18.996 13.8 18H10.2C10.2 18.996 11.004 19.8 12 19.8ZM12 0C5.376 0 0 5.376 0 12C0 18.624 5.376 24 12 24C18.624 24 24 18.624 24 12C24 5.376 18.624 0 12 0ZM12 21.6C6.708 21.6 2.4 17.292 2.4 12C2.4 6.708 6.708 2.4 12 2.4C17.292 2.4 21.6 6.708 21.6 12C21.6 17.292 17.292 21.6 12 21.6ZM16.8 11.268C16.8 8.736 15.564 6.564 13.2 6V5.4C13.2 4.716 12.684 4.2 12 4.2C11.316 4.2 10.8 4.716 10.8 5.4V6C8.436 6.564 7.2 8.724 7.2 11.268V14.4H6V16.8H18V14.4H16.8V11.268ZM14.4 14.4H9.6V10.8C9.6 9.48 10.68 8.4 12 8.4C13.32 8.4 14.4 9.48 14.4 10.8V14.4Z" fill="#FB610B"/>
</svg>
