<svg width="24" height="24" viewBox="0 0 24 24" fill="none" xmlns="http://www.w3.org/2000/svg">
<path d="M5 4.99991H7V7.99991H17V4.99991H19V9.99991H21V4.99991C21 4.46948 20.7893 3.96077 20.4142 3.5857C20.0391 3.21063 19.5304 2.99991 19 2.99991H14.82C14.6098 2.42076 14.2264 1.92037 13.7218 1.56676C13.2173 1.21314 12.6161 1.02344 12 1.02344C11.3839 1.02344 10.7827 1.21314 10.2782 1.56676C9.77363 1.92037 9.3902 2.42076 9.18 2.99991H5C4.46957 2.99991 3.96086 3.21063 3.58579 3.5857C3.21071 3.96077 3 4.46948 3 4.99991V18.9999C3 19.5303 3.21071 20.0391 3.58579 20.4141C3.96086 20.7892 4.46957 20.9999 5 20.9999H10V18.9999H5V4.99991ZM12 2.99991C12.1978 2.99991 12.3911 3.05856 12.5556 3.16844C12.72 3.27833 12.8482 3.4345 12.9239 3.61723C12.9996 3.79996 13.0194 4.00102 12.9808 4.195C12.9422 4.38899 12.847 4.56717 12.7071 4.70702C12.5673 4.84687 12.3891 4.94211 12.1951 4.9807C12.0011 5.01928 11.8 4.99948 11.6173 4.92379C11.4346 4.84811 11.2784 4.71993 11.1685 4.55548C11.0586 4.39104 11 4.1977 11 3.99991C11 3.7347 11.1054 3.48034 11.2929 3.29281C11.4804 3.10527 11.7348 2.99991 12 2.99991Z" fill="#FB610B"/>
<path d="M20.3 18.9C20.7408 18.1757 20.9823 17.3477 21 16.5C21 15.61 20.7361 14.74 20.2416 13.9999C19.7471 13.2599 19.0443 12.6831 18.2221 12.3425C17.3998 12.0019 16.495 11.9128 15.6221 12.0865C14.7492 12.2601 13.9474 12.6887 13.318 13.318C12.6887 13.9474 12.2601 14.7492 12.0865 15.6221C11.9128 16.495 12.0019 17.3998 12.3425 18.2221C12.6831 19.0443 13.2599 19.7471 13.9999 20.2416C14.74 20.7361 15.61 21 16.5 21C17.3477 20.9823 18.1757 20.7408 18.9 20.3L21.6 23L23 21.6L20.3 18.9ZM16.5 19C16.0055 19 15.5222 18.8534 15.1111 18.5787C14.7 18.304 14.3795 17.9135 14.1903 17.4567C14.0011 16.9999 13.9516 16.4972 14.048 16.0123C14.1445 15.5273 14.3826 15.0819 14.7322 14.7322C15.0819 14.3826 15.5273 14.1445 16.0123 14.048C16.4972 13.9516 16.9999 14.0011 17.4567 14.1903C17.9135 14.3795 18.304 14.7 18.5787 15.1111C18.8534 15.5222 19 16.0055 19 16.5C19.0027 16.829 18.9398 17.1553 18.8151 17.4599C18.6904 17.7644 18.5064 18.041 18.2737 18.2737C18.041 18.5064 17.7644 18.6904 17.4599 18.8151C17.1553 18.9398 16.829 19.0027 16.5 19Z" fill="#FB610B"/>
</svg>
