<svg width="24" height="24" viewBox="0 0 24 24" fill="none" xmlns="http://www.w3.org/2000/svg">
<path d="M20 2H4C3.46957 2 2.96086 2.21071 2.58579 2.58579C2.21071 2.96086 2 3.46957 2 4V22L6 18H20C20.5304 18 21.0391 17.7893 21.4142 17.4142C21.7893 17.0391 22 16.5304 22 16V4C22 3.46957 21.7893 2.96086 21.4142 2.58579C21.0391 2.21071 20.5304 2 20 2ZM20 16H5.17L4.58 16.59L4 17.17V4H20V16ZM10.5 14H18V12H12.5L10.5 14ZM14.36 8.13C14.4069 8.08352 14.4441 8.02822 14.4694 7.96729C14.4948 7.90636 14.5079 7.84101 14.5079 7.775C14.5079 7.70899 14.4948 7.64364 14.4694 7.58271C14.4441 7.52178 14.4069 7.46648 14.36 7.42L12.59 5.65C12.5435 5.60314 12.4882 5.56594 12.4273 5.54055C12.3664 5.51517 12.301 5.5021 12.235 5.5021C12.169 5.5021 12.1036 5.51517 12.0427 5.54055C11.9818 5.56594 11.9265 5.60314 11.88 5.65L6 11.53V14H8.47L14.36 8.13Z" fill="#FB610B"/>
</svg>
