<svg width="24" height="24" viewBox="0 0 24 24" fill="none" xmlns="http://www.w3.org/2000/svg">
<path d="M21 12.2201C20.992 9.8331 20.0362 7.54708 18.3427 5.86488C16.6493 4.18267 14.3569 3.24209 11.97 3.25005C9.58305 3.25801 7.29703 4.21385 5.61483 5.9073C3.93262 7.60076 2.99204 9.8931 3 12.2801C2.69772 12.4546 2.44638 12.7051 2.27095 13.0069C2.09552 13.3086 2.00211 13.651 2 14.0001V16.0001C2 16.5305 2.21071 17.0392 2.58579 17.4143C2.96086 17.7893 3.46957 18.0001 4 18.0001H5V11.9001C5 10.9808 5.18106 10.0705 5.53284 9.22127C5.88463 8.37199 6.40024 7.60031 7.05025 6.9503C7.70026 6.30029 8.47194 5.78468 9.32122 5.43289C10.1705 5.08111 11.0807 4.90005 12 4.90005C12.9193 4.90005 13.8295 5.08111 14.6788 5.43289C15.5281 5.78468 16.2997 6.30029 16.9497 6.9503C17.5998 7.60031 18.1154 8.37199 18.4672 9.22127C18.8189 10.0705 19 10.9808 19 11.9001V19.0001H11V21H19C19.5304 21 20.0391 20.7893 20.4142 20.4143C20.7893 20.0392 21 19.5305 21 19.0001V17.7801C21.3008 17.6244 21.5532 17.3892 21.7295 17.1C21.9059 16.8108 21.9994 16.4788 22 16.14V13.8401C21.9969 13.5045 21.9021 13.1762 21.7258 12.8907C21.5495 12.6051 21.2986 12.3732 21 12.2201Z" fill="white"/>
<path d="M9 14C9.55228 14 10 13.5523 10 13C10 12.4477 9.55228 12 9 12C8.44772 12 8 12.4477 8 13C8 13.5523 8.44772 14 9 14Z" fill="white"/>
<path d="M15 14C15.5523 14 16 13.5523 16 13C16 12.4477 15.5523 12 15 12C14.4477 12 14 12.4477 14 13C14 13.5523 14.4477 14 15 14Z" fill="white"/>
<path d="M17.9997 11.0003C17.8074 9.40901 16.9909 7.95927 15.7297 6.97001C14.4685 5.98076 12.866 5.53302 11.2747 5.72531C9.68342 5.91759 8.23368 6.73414 7.24443 7.99532C6.25517 9.2565 5.80744 10.859 5.99972 12.4503C7.2331 11.9461 8.32243 11.1443 9.17047 10.1165C10.0185 9.08875 10.5989 7.86699 10.8597 6.56031C11.5205 7.89012 12.5384 9.00978 13.7994 9.79393C15.0604 10.5781 16.5148 10.9958 17.9997 11.0003Z" fill="white"/>
</svg>
