<svg width="24" height="24" viewBox="0 0 24 24" fill="none" xmlns="http://www.w3.org/2000/svg">
<path d="M21 7.26978C21.1863 7.08241 21.2908 6.82896 21.2908 6.56478C21.2908 6.30059 21.1863 6.04714 21 5.85978L18.14 2.99978C17.9526 2.81353 17.6992 2.70898 17.435 2.70898C17.1708 2.70898 16.9174 2.81353 16.73 2.99978L12.24 7.51978L8.35 3.62978C8.16425 3.44382 7.94368 3.29631 7.70088 3.19566C7.45808 3.09501 7.19783 3.0432 6.935 3.0432C6.67217 3.0432 6.41192 3.09501 6.16912 3.19566C5.92632 3.29631 5.70575 3.44382 5.52 3.62978L3.62 5.52978C3.43405 5.71552 3.28653 5.9361 3.18588 6.1789C3.08523 6.42169 3.03343 6.68195 3.03343 6.94478C3.03343 7.20761 3.08523 7.46786 3.18588 7.71066C3.28653 7.95345 3.43405 8.17403 3.62 8.35978L7.51 12.2498L3 16.7598V20.9998H7.24L11.76 16.4798L15.65 20.3698C15.8357 20.5557 16.0563 20.7032 16.2991 20.8039C16.5419 20.9045 16.8022 20.9564 17.065 20.9564C17.3278 20.9564 17.5881 20.9045 17.8309 20.8039C18.0737 20.7032 18.2943 20.5557 18.48 20.3698L20.38 18.4698C20.566 18.284 20.7135 18.0635 20.8141 17.8207C20.9148 17.5779 20.9666 17.3176 20.9666 17.0548C20.9666 16.7919 20.9148 16.5317 20.8141 16.2889C20.7135 16.0461 20.566 15.8255 20.38 15.6398L16.49 11.7498L21 7.26978ZM5 6.93978L6.93 4.99978L8.2 6.30978L7 7.49978L8.43 8.90978L9.62 7.71978L10.82 8.91978L8.92 10.8198L5 6.93978ZM16.23 14.3798L15.04 15.5698L16.49 16.9998L17.68 15.8098L19 17.0598L17.05 18.9998L13.16 15.1098L15.06 13.2098L16.23 14.3798ZM6.41 18.9998H5V17.5898L14.61 7.99978L15.91 9.29978L16.02 9.40978L6.41 18.9998ZM16 6.55978L17.41 5.14978L18.82 6.55978L17.43 7.99978L16 6.55978Z" fill="white"/>
</svg>
