<svg width="24" height="24" viewBox="0 0 24 24" fill="none" xmlns="http://www.w3.org/2000/svg">
<path d="M15.4998 11.4997C15.4998 13.4997 12.9998 14.9997 12.9998 16.4997H10.9998C10.9998 14.9997 8.49982 13.4997 8.49982 11.4997C8.49982 10.5714 8.86857 9.68119 9.52494 9.02481C10.1813 8.36844 11.0716 7.99969 11.9998 7.99969C12.9281 7.99969 13.8183 8.36844 14.4747 9.02481C15.1311 9.68119 15.4998 10.5714 15.4998 11.4997ZM12.9998 17.4997H10.9998V18.9997H12.9998V17.4997ZM21.9998 11.9997C21.9992 9.34774 20.9453 6.80461 19.0698 4.92969L17.9998 5.99969C19.5875 7.59289 20.479 9.75044 20.479 11.9997C20.479 14.2489 19.5875 16.4065 17.9998 17.9997L19.0598 19.0597C20.9365 17.1888 21.9939 14.6496 21.9998 11.9997ZM3.49982 11.9997C3.50146 10.8843 3.72313 9.78022 4.15212 8.75065C4.58111 7.72107 5.20899 6.78624 5.99982 5.99969L4.92982 4.92969C3.05511 6.80496 2.00195 9.34805 2.00195 11.9997C2.00195 14.6513 3.05511 17.1944 4.92982 19.0697L5.99982 17.9997C5.20899 17.2131 4.58111 16.2783 4.15212 15.2487C3.72313 14.2192 3.50146 13.1151 3.49982 11.9997ZM17.4998 11.9997C17.4992 13.4583 16.9202 14.8572 15.8898 15.8897L16.9998 16.9997C17.6499 16.3497 18.1656 15.578 18.5174 14.7286C18.8692 13.8793 19.0503 12.969 19.0503 12.0497C19.0503 11.1304 18.8692 10.2201 18.5174 9.37074C18.1656 8.52141 17.6499 7.74971 16.9998 7.09969L15.8898 8.10969C16.9202 9.14213 17.4992 10.541 17.4998 11.9997ZM7.04982 16.9997L8.10982 15.9397C7.59882 15.4289 7.19346 14.8225 6.9169 14.155C6.64034 13.4876 6.49799 12.7722 6.49799 12.0497C6.49799 11.3272 6.64034 10.6118 6.9169 9.94433C7.19346 9.27687 7.59882 8.67044 8.10982 8.15969L7.04982 7.04969C6.39973 7.69971 5.88405 8.47141 5.53222 9.32074C5.1804 10.1701 4.99931 11.0804 4.99931 11.9997C4.99931 12.919 5.1804 13.8293 5.53222 14.6786C5.88405 15.528 6.39973 16.2997 7.04982 16.9497V16.9997Z" fill="white"/>
</svg>
