<svg width="24" height="24" viewBox="0 0 24 24" fill="none" xmlns="http://www.w3.org/2000/svg">
<path d="M12 6C13.8387 5.99389 15.6419 6.50678 17.2021 7.47973C18.7624 8.45267 20.0164 9.84616 20.82 11.5C20.012 13.1506 18.7571 14.5414 17.1979 15.5141C15.6387 16.4869 13.8378 17.0026 12 17.0026C10.1622 17.0026 8.36135 16.4869 6.80214 15.5141C5.24293 14.5414 3.98798 13.1506 3.18 11.5C3.98362 9.84616 5.23763 8.45267 6.79788 7.47973C8.35813 6.50678 10.1613 5.99389 12 6ZM12 4C9.62557 4.00182 7.30663 4.71812 5.34481 6.05573C3.38299 7.39333 1.86909 9.29034 1 11.5C1.86884 13.7094 3.38286 15.6059 5.34486 16.9426C7.30687 18.2793 9.62593 18.9942 12 18.9942C14.3741 18.9942 16.6931 18.2793 18.6551 16.9426C20.6171 15.6059 22.1312 13.7094 23 11.5C22.1309 9.29034 20.617 7.39333 18.6552 6.05573C16.6934 4.71812 14.3744 4.00182 12 4ZM12 9C12.4945 9 12.9778 9.14662 13.3889 9.42133C13.8 9.69603 14.1205 10.0865 14.3097 10.5433C14.4989 11.0001 14.5484 11.5028 14.452 11.9877C14.3555 12.4727 14.1174 12.9181 13.7678 13.2678C13.4181 13.6174 12.9727 13.8555 12.4877 13.952C12.0028 14.0484 11.5001 13.9989 11.0433 13.8097C10.5865 13.6205 10.196 13.3 9.92133 12.8889C9.64662 12.4778 9.5 11.9945 9.5 11.5C9.5 10.837 9.76339 10.2011 10.2322 9.73223C10.7011 9.26339 11.337 9 12 9ZM12 7C11.11 7 10.24 7.26392 9.49993 7.75839C8.75991 8.25285 8.18314 8.95566 7.84254 9.77792C7.50195 10.6002 7.41283 11.505 7.58647 12.3779C7.7601 13.2508 8.18868 14.0526 8.81802 14.682C9.44736 15.3113 10.2492 15.7399 11.1221 15.9135C11.995 16.0872 12.8998 15.9981 13.7221 15.6575C14.5443 15.3169 15.2471 14.7401 15.7416 14.0001C16.2361 13.26 16.5 12.39 16.5 11.5C16.4974 10.3073 16.0224 9.16428 15.1791 8.32094C14.3357 7.4776 13.1927 7.00264 12 7Z" fill="#FB610B"/>
</svg>
